<?xml version="1.0" encoding="UTF-8"?>
<!DOCTYPE svg PUBLIC "-//W3C//DTD SVG 1.1//EN" "http://www.w3.org/Graphics/SVG/1.1/DTD/svg11.dtd">
<svg xmlns="http://www.w3.org/2000/svg" version="1.1" width="1050px" height="1050px" style="shape-rendering:geometricPrecision; text-rendering:geometricPrecision; image-rendering:optimizeQuality; fill-rule:evenodd; clip-rule:evenodd" xmlns:xlink="http://www.w3.org/1999/xlink">
<g><path style="opacity:0.008" fill="#ebebf4" d="M 511.5,7.5 C 510.761,7.63101 510.094,7.46434 509.5,7C 510.437,6.30831 511.103,6.47498 511.5,7.5 Z"/></g>
<g><path style="opacity:0.004" fill="#efeff7" d="M 538.5,7.5 C 538.897,6.47498 539.563,6.30831 540.5,7C 539.906,7.46434 539.239,7.63101 538.5,7.5 Z"/></g>
<g><path style="opacity:0.004" fill="#f6f7fa" d="M 505.5,8.5 C 505.897,7.47498 506.563,7.30831 507.5,8C 506.906,8.46434 506.239,8.63101 505.5,8.5 Z"/></g>
<g><path style="opacity:0.994" fill="#fcfcfd" d="M 511.5,7.5 C 520.5,7.5 529.5,7.5 538.5,7.5C 538.783,8.28913 539.283,8.9558 540,9.5C 541.816,9.64907 543.649,9.64907 545.5,9.5C 546.105,11.4812 547.105,11.8146 548.5,10.5C 549.105,12.4812 550.105,12.8146 551.5,11.5C 551.783,12.2891 552.283,12.9558 553,13.5C 553.986,12.8288 555.153,12.8288 556.5,13.5C 557.209,14.404 558.209,14.7373 559.5,14.5C 560.209,15.404 561.209,15.7373 562.5,15.5C 566.502,17.6098 570.835,18.9431 575.5,19.5C 576.209,20.404 577.209,20.7373 578.5,20.5C 579.209,21.404 580.209,21.7373 581.5,21.5C 582.209,22.404 583.209,22.7373 584.5,22.5C 585.008,24.2327 585.841,24.566 587,23.5C 589.301,24.8672 591.801,25.5339 594.5,25.5C 595.105,27.4812 596.105,27.8146 597.5,26.5C 598.105,28.4812 599.105,28.8146 600.5,27.5C 601.105,29.4812 602.105,29.8146 603.5,28.5C 604.105,30.4812 605.105,30.8146 606.5,29.5C 607.105,31.4812 608.105,31.8146 609.5,30.5C 610.105,32.4812 611.105,32.8146 612.5,31.5C 613.403,33.6204 614.737,33.9538 616.5,32.5C 617.635,34.2132 619.302,34.8799 621.5,34.5C 622.209,35.404 623.209,35.7373 624.5,35.5C 625.209,36.404 626.209,36.7373 627.5,36.5C 628.209,37.404 629.209,37.7373 630.5,37.5C 631.209,38.404 632.209,38.7373 633.5,38.5C 634.008,40.2327 634.841,40.566 636,39.5C 639.293,41.2085 642.793,42.2085 646.5,42.5C 647.209,43.404 648.209,43.7373 649.5,43.5C 650.209,44.404 651.209,44.7373 652.5,44.5C 653.105,46.4812 654.105,46.8146 655.5,45.5C 655.783,46.2891 656.283,46.9558 657,47.5C 658.816,47.6491 660.649,47.6491 662.5,47.5C 663.105,49.4812 664.105,49.8146 665.5,48.5C 666.105,50.4812 667.105,50.8146 668.5,49.5C 669.105,51.4812 670.105,51.8146 671.5,50.5C 671.811,51.4778 672.478,52.1445 673.5,52.5C 674.726,51.6371 676.06,51.6371 677.5,52.5C 678.105,54.4812 679.105,54.8146 680.5,53.5C 681.105,55.4812 682.105,55.8146 683.5,54.5C 684.105,56.4812 685.105,56.8146 686.5,55.5C 688.102,57.0739 690.102,57.7406 692.5,57.5C 693.209,58.404 694.209,58.7373 695.5,58.5C 696.209,59.404 697.209,59.7373 698.5,59.5C 699.209,60.404 700.209,60.7373 701.5,60.5C 702.105,62.4812 703.105,62.8146 704.5,61.5C 705.008,63.2327 705.841,63.566 707,62.5C 709.301,63.8672 711.801,64.5339 714.5,64.5C 715.209,65.404 716.209,65.7373 717.5,65.5C 718.209,66.404 719.209,66.7373 720.5,66.5C 721.105,68.4812 722.105,68.8146 723.5,67.5C 724.008,69.2327 724.841,69.566 726,68.5C 728.422,70.3789 730.922,71.0456 733.5,70.5C 734.105,72.4812 735.105,72.8146 736.5,71.5C 737.105,73.4812 738.105,73.8146 739.5,72.5C 740.105,74.4812 741.105,74.8146 742.5,73.5C 743.105,75.4812 744.105,75.8146 745.5,74.5C 746.105,76.4812 747.105,76.8146 748.5,75.5C 749.105,77.4812 750.105,77.8146 751.5,76.5C 751.611,77.1174 751.944,77.6174 752.5,78C 756.112,79.15 759.778,79.9834 763.5,80.5C 764.209,81.404 765.209,81.7373 766.5,81.5C 767.209,82.404 768.209,82.7373 769.5,82.5C 770.209,83.404 771.209,83.7373 772.5,83.5C 773.008,85.2327 773.841,85.566 775,84.5C 777.301,85.8672 779.801,86.5339 782.5,86.5C 783.209,87.404 784.209,87.7373 785.5,87.5C 786.105,89.4812 787.105,89.8146 788.5,88.5C 789.105,90.4812 790.105,90.8146 791.5,89.5C 792.105,91.4812 793.105,91.8146 794.5,90.5C 794.783,91.2891 795.283,91.9558 796,92.5C 797.816,92.6491 799.649,92.6491 801.5,92.5C 802.105,94.4812 803.105,94.8146 804.5,93.5C 805.105,95.4812 806.105,95.8146 807.5,94.5C 808.105,96.4812 809.105,96.8146 810.5,95.5C 811.105,97.4812 812.105,97.8146 813.5,96.5C 813.611,97.1174 813.944,97.6174 814.5,98C 821.104,100.15 827.771,101.984 834.5,103.5C 835.209,104.404 836.209,104.737 837.5,104.5C 838.209,105.404 839.209,105.737 840.5,105.5C 843.505,107.277 846.838,108.277 850.5,108.5C 851.209,109.404 852.209,109.737 853.5,109.5C 854.105,111.481 855.105,111.815 856.5,110.5C 857.105,112.481 858.105,112.815 859.5,111.5C 860.292,113.745 861.625,114.078 863.5,112.5C 864.105,114.481 865.105,114.815 866.5,113.5C 867.105,115.481 868.105,115.815 869.5,114.5C 870.105,116.481 871.105,116.815 872.5,115.5C 872.783,116.289 873.283,116.956 874,117.5C 874.986,116.829 876.153,116.829 877.5,117.5C 878.209,118.404 879.209,118.737 880.5,118.5C 881.209,119.404 882.209,119.737 883.5,119.5C 884.209,120.404 885.209,120.737 886.5,120.5C 887.209,121.404 888.209,121.737 889.5,121.5C 890.105,123.481 891.105,123.815 892.5,122.5C 893.008,124.233 893.841,124.566 895,123.5C 897.301,124.867 899.801,125.534 902.5,125.5C 903.209,126.404 904.209,126.737 905.5,126.5C 906.209,127.404 907.209,127.737 908.5,127.5C 909.105,129.481 910.105,129.815 911.5,128.5C 912.008,130.233 912.841,130.566 914,129.5C 916.301,130.867 918.801,131.534 921.5,131.5C 922.574,132.885 923.907,134.051 925.5,135C 925.432,142.29 925.432,149.79 925.5,157.5C 924.667,311.333 924.167,465.333 924,619.5C 921.879,644.321 915.545,667.987 905,690.5C 892.341,717.844 876.674,743.178 858,766.5C 821.262,809.91 780.095,848.41 734.5,882C 669.598,929.499 600.598,970.499 527.5,1005C 526.667,1005.83 525.833,1006.67 525,1007.5C 433.078,963.485 347.912,909.318 269.5,845C 254.339,831.506 239.506,817.672 225,803.5C 201.446,779.686 180.779,753.686 163,725.5C 146.03,697.594 134.363,667.594 128,635.5C 127.187,630.185 126.521,624.852 126,619.5C 125.833,465.333 125.333,311.333 124.5,157.5C 124.311,148.838 124.645,140.505 125.5,132.5C 126.895,133.815 127.895,133.481 128.5,131.5C 131.199,131.534 133.699,130.867 136,129.5C 137.159,130.566 137.992,130.233 138.5,128.5C 139.895,129.815 140.895,129.481 141.5,127.5C 142.791,127.737 143.791,127.404 144.5,126.5C 148.207,126.208 151.707,125.208 155,123.5C 156.159,124.566 156.992,124.233 157.5,122.5C 158.895,123.815 159.895,123.481 160.5,121.5C 161.791,121.737 162.791,121.404 163.5,120.5C 164.791,120.737 165.791,120.404 166.5,119.5C 167.791,119.737 168.791,119.404 169.5,118.5C 171.582,118.528 173.416,117.861 175,116.5C 176.159,117.566 176.992,117.233 177.5,115.5C 178.895,116.815 179.895,116.481 180.5,114.5C 181.895,115.815 182.895,115.481 183.5,113.5C 184.895,114.815 185.895,114.481 186.5,112.5C 188.263,113.954 189.597,113.62 190.5,111.5C 191.895,112.815 192.895,112.481 193.5,110.5C 194.895,111.815 195.895,111.481 196.5,109.5C 197.791,109.737 198.791,109.404 199.5,108.5C 202.199,108.534 204.699,107.867 207,106.5C 208.159,107.566 208.992,107.233 209.5,105.5C 210.791,105.737 211.791,105.404 212.5,104.5C 213.791,104.737 214.791,104.404 215.5,103.5C 220.225,102.649 224.892,101.482 229.5,100C 232.281,99.4782 234.615,98.3115 236.5,96.5C 237.895,97.8146 238.895,97.4812 239.5,95.5C 240.895,96.8146 241.895,96.4812 242.5,94.5C 243.895,95.8146 244.895,95.4812 245.5,93.5C 246.895,94.8146 247.895,94.4812 248.5,92.5C 250.351,92.6491 252.184,92.6491 254,92.5C 254.717,91.9558 255.217,91.2891 255.5,90.5C 256.895,91.8146 257.895,91.4812 258.5,89.5C 259.895,90.8146 260.895,90.4812 261.5,88.5C 262.895,89.8146 263.895,89.4812 264.5,87.5C 265.791,87.7373 266.791,87.404 267.5,86.5C 270.199,86.5339 272.699,85.8672 275,84.5C 276.159,85.566 276.992,85.2327 277.5,83.5C 278.791,83.7373 279.791,83.404 280.5,82.5C 281.791,82.7373 282.791,82.404 283.5,81.5C 284.791,81.7373 285.791,81.404 286.5,80.5C 287.791,80.7373 288.791,80.404 289.5,79.5C 292.992,79.554 295.992,78.554 298.5,76.5C 299.895,77.8146 300.895,77.4812 301.5,75.5C 302.895,76.8146 303.895,76.4812 304.5,74.5C 305.895,75.8146 306.895,75.4812 307.5,73.5C 308.895,74.8146 309.895,74.4812 310.5,72.5C 311.895,73.8146 312.895,73.4812 313.5,71.5C 314.895,72.8146 315.895,72.4812 316.5,70.5C 318.351,70.6491 320.184,70.6491 322,70.5C 322.717,69.9558 323.217,69.2891 323.5,68.5C 324.895,69.8146 325.895,69.4812 326.5,67.5C 327.895,68.8146 328.895,68.4812 329.5,66.5C 330.791,66.7373 331.791,66.404 332.5,65.5C 336.207,65.2085 339.707,64.2085 343,62.5C 344.159,63.566 344.992,63.2327 345.5,61.5C 346.895,62.8146 347.895,62.4812 348.5,60.5C 349.791,60.7373 350.791,60.404 351.5,59.5C 352.791,59.7373 353.791,59.404 354.5,58.5C 355.791,58.7373 356.791,58.404 357.5,57.5C 358.791,57.7373 359.791,57.404 360.5,56.5C 361.791,56.7373 362.791,56.404 363.5,55.5C 364.895,56.8146 365.895,56.4812 366.5,54.5C 367.895,55.8146 368.895,55.4812 369.5,53.5C 370.117,53.6107 370.617,53.944 371,54.5C 373.396,52.1072 375.896,50.7738 378.5,50.5C 379.895,51.8146 380.895,51.4812 381.5,49.5C 382.895,50.8146 383.895,50.4812 384.5,48.5C 385.895,49.8146 386.895,49.4812 387.5,47.5C 389.351,47.6491 391.184,47.6491 393,47.5C 393.717,46.9558 394.217,46.2891 394.5,45.5C 395.895,46.8146 396.895,46.4812 397.5,44.5C 398.791,44.7373 399.791,44.404 400.5,43.5C 401.791,43.7373 402.791,43.404 403.5,42.5C 407.207,42.2085 410.707,41.2085 414,39.5C 415.159,40.566 415.992,40.2327 416.5,38.5C 417.791,38.7373 418.791,38.404 419.5,37.5C 420.791,37.7373 421.791,37.404 422.5,36.5C 423.791,36.7373 424.791,36.404 425.5,35.5C 426.791,35.7373 427.791,35.404 428.5,34.5C 430.698,34.8799 432.365,34.2132 433.5,32.5C 434.117,32.6107 434.617,32.944 435,33.5C 437.209,33.0108 439.042,32.0108 440.5,30.5C 441.895,31.8146 442.895,31.4812 443.5,29.5C 444.895,30.8146 445.895,30.4812 446.5,28.5C 447.895,29.8146 448.895,29.4812 449.5,27.5C 450.895,28.8146 451.895,28.4812 452.5,26.5C 453.895,27.8146 454.895,27.4812 455.5,25.5C 458.199,25.5339 460.699,24.8672 463,23.5C 464.159,24.566 464.992,24.2327 465.5,22.5C 466.791,22.7373 467.791,22.404 468.5,21.5C 469.791,21.7373 470.791,21.404 471.5,20.5C 477.166,19.6096 482.5,17.943 487.5,15.5C 488.791,15.7373 489.791,15.404 490.5,14.5C 492.582,14.528 494.416,13.8613 496,12.5C 497.159,13.566 497.992,13.2327 498.5,11.5C 499.895,12.8146 500.895,12.4812 501.5,10.5C 502.895,11.8146 503.895,11.4812 504.5,9.5C 505.117,9.61071 505.617,9.94404 506,10.5C 508.209,10.0108 510.042,9.01079 511.5,7.5 Z"/></g>
<g><path style="opacity:0.004" fill="#f9f9fb" d="M 542.5,8.5 C 542.897,7.47498 543.563,7.30831 544.5,8C 543.906,8.46434 543.239,8.63101 542.5,8.5 Z"/></g>
<g><path style="opacity:0.004" fill="#f7f7fa" d="M 504.5,9.5 C 503.761,9.63101 503.094,9.46434 502.5,9C 503.437,8.30831 504.103,8.47498 504.5,9.5 Z"/></g>
<g><path style="opacity:0.004" fill="#f9f9fb" d="M 545.5,9.5 C 545.897,8.47498 546.563,8.30831 547.5,9C 546.906,9.46434 546.239,9.63101 545.5,9.5 Z"/></g>
<g><path style="opacity:0.004" fill="#f7f7fa" d="M 501.5,10.5 C 500.761,10.631 500.094,10.4643 499.5,10C 500.437,9.30831 501.103,9.47498 501.5,10.5 Z"/></g>
<g><path style="opacity:0.004" fill="#f9f9fb" d="M 548.5,10.5 C 548.897,9.47498 549.563,9.30831 550.5,10C 549.906,10.4643 549.239,10.631 548.5,10.5 Z"/></g>
<g><path style="opacity:0.004" fill="#f7f8fb" d="M 498.5,11.5 C 497.761,11.631 497.094,11.4643 496.5,11C 497.437,10.3083 498.103,10.475 498.5,11.5 Z"/></g>
<g><path style="opacity:0.004" fill="#f9f9fb" d="M 551.5,11.5 C 551.897,10.475 552.563,10.3083 553.5,11C 552.906,11.4643 552.239,11.631 551.5,11.5 Z"/></g>
<g><path style="opacity:0.006" fill="#f7f8fa" d="M 556.5,13.5 C 556.897,12.475 557.563,12.3083 558.5,13C 557.906,13.4643 557.239,13.631 556.5,13.5 Z"/></g>
<g><path style="opacity:0.008" fill="#faf9fc" d="M 490.5,14.5 C 489.761,14.631 489.094,14.4643 488.5,14C 489.437,13.3083 490.103,13.475 490.5,14.5 Z"/></g>
<g><path style="opacity:0.004" fill="#f9f9fc" d="M 559.5,14.5 C 559.897,13.475 560.563,13.3083 561.5,14C 560.906,14.4643 560.239,14.631 559.5,14.5 Z"/></g>
<g><path style="opacity:0.008" fill="#fbfbfc" d="M 487.5,15.5 C 486.761,15.631 486.094,15.4643 485.5,15C 486.437,14.3083 487.103,14.475 487.5,15.5 Z"/></g>
<g><path style="opacity:0.004" fill="#f9f9fb" d="M 562.5,15.5 C 562.897,14.475 563.563,14.3083 564.5,15C 563.906,15.4643 563.239,15.631 562.5,15.5 Z"/></g>
<g><path style="opacity:0.004" fill="#f7f7fb" d="M 481.5,16.5 C 481.897,15.475 482.563,15.3083 483.5,16C 482.906,16.4643 482.239,16.631 481.5,16.5 Z"/></g>
<g><path style="opacity:0.004" fill="#f7f7fb" d="M 566.5,16.5 C 566.897,15.475 567.563,15.3083 568.5,16C 567.906,16.4643 567.239,16.631 566.5,16.5 Z"/></g>
<g><path style="opacity:0.006" fill="#f7f7fa" d="M 478.5,17.5 C 478.897,16.475 479.563,16.3083 480.5,17C 479.906,17.4643 479.239,17.631 478.5,17.5 Z"/></g>
<g><path style="opacity:0.006" fill="#f7f7fa" d="M 569.5,17.5 C 569.897,16.475 570.563,16.3083 571.5,17C 570.906,17.4643 570.239,17.631 569.5,17.5 Z"/></g>
<g><path style="opacity:0.006" fill="#f7f7fb" d="M 475.5,18.5 C 475.897,17.475 476.563,17.3083 477.5,18C 476.906,18.4643 476.239,18.631 475.5,18.5 Z"/></g>
<g><path style="opacity:0.006" fill="#f7f7fb" d="M 572.5,18.5 C 572.897,17.475 573.563,17.3083 574.5,18C 573.906,18.4643 573.239,18.631 572.5,18.5 Z"/></g>
<g><path style="opacity:0.006" fill="#f8f9fb" d="M 472.5,19.5 C 472.897,18.475 473.563,18.3083 474.5,19C 473.906,19.4643 473.239,19.631 472.5,19.5 Z"/></g>
<g><path style="opacity:0.006" fill="#f8f9fb" d="M 575.5,19.5 C 575.897,18.475 576.563,18.3083 577.5,19C 576.906,19.4643 576.239,19.631 575.5,19.5 Z"/></g>
<g><path style="opacity:0.008" fill="#f9f9fc" d="M 471.5,20.5 C 470.761,20.631 470.094,20.4643 469.5,20C 470.437,19.3083 471.103,19.475 471.5,20.5 Z"/></g>
<g><path style="opacity:0.004" fill="#f8f8fb" d="M 578.5,20.5 C 578.897,19.475 579.563,19.3083 580.5,20C 579.906,20.4643 579.239,20.631 578.5,20.5 Z"/></g>
<g><path style="opacity:0.008" fill="#f9f9fc" d="M 468.5,21.5 C 467.761,21.631 467.094,21.4643 466.5,21C 467.437,20.3083 468.103,20.475 468.5,21.5 Z"/></g>
<g><path style="opacity:0.004" fill="#f8f8fa" d="M 581.5,21.5 C 581.897,20.475 582.563,20.3083 583.5,21C 582.906,21.4643 582.239,21.631 581.5,21.5 Z"/></g>
<g><path style="opacity:0.008" fill="#f8f8fb" d="M 465.5,22.5 C 464.761,22.631 464.094,22.4643 463.5,22C 464.437,21.3083 465.103,21.475 465.5,22.5 Z"/></g>
<g><path style="opacity:0.004" fill="#f6f6fa" d="M 584.5,22.5 C 584.897,21.475 585.563,21.3083 586.5,22C 585.906,22.4643 585.239,22.631 584.5,22.5 Z"/></g>
<g><path style="opacity:0.006" fill="#f6f6fa" d="M 459.5,23.5 C 459.897,22.475 460.563,22.3083 461.5,23C 460.906,23.4643 460.239,23.631 459.5,23.5 Z"/></g>
<g><path style="opacity:0.006" fill="#f6f7fa" d="M 588.5,23.5 C 588.897,22.475 589.563,22.3083 590.5,23C 589.906,23.4643 589.239,23.631 588.5,23.5 Z"/></g>
<g><path style="opacity:0.008" fill="#f5f5f9" d="M 456.5,24.5 C 456.897,23.475 457.563,23.3083 458.5,24C 457.906,24.4643 457.239,24.631 456.5,24.5 Z"/></g>
<g><path style="opacity:0.004" fill="#f5f5fa" d="M 591.5,24.5 C 591.897,23.475 592.563,23.3083 593.5,24C 592.906,24.4643 592.239,24.631 591.5,24.5 Z"/></g>
<g><path style="opacity:0.008" fill="#f4f4f9" d="M 455.5,25.5 C 454.761,25.631 454.094,25.4643 453.5,25C 454.437,24.3083 455.103,24.475 455.5,25.5 Z"/></g>
<g><path style="opacity:0.004" fill="#f5f4f9" d="M 594.5,25.5 C 594.897,24.475 595.563,24.3083 596.5,25C 595.906,25.4643 595.239,25.631 594.5,25.5 Z"/></g>
<g><path style="opacity:0.008" fill="#f3f3f9" d="M 452.5,26.5 C 451.761,26.631 451.094,26.4643 450.5,26C 451.437,25.3083 452.103,25.475 452.5,26.5 Z"/></g>
<g><path style="opacity:0.004" fill="#f4f4f9" d="M 597.5,26.5 C 597.897,25.475 598.563,25.3083 599.5,26C 598.906,26.4643 598.239,26.631 597.5,26.5 Z"/></g>
<g><path style="opacity:0.008" fill="#f4f3f9" d="M 449.5,27.5 C 448.761,27.631 448.094,27.4643 447.5,27C 448.437,26.3083 449.103,26.475 449.5,27.5 Z"/></g>
<g><path style="opacity:0.004" fill="#f5f4f9" d="M 600.5,27.5 C 600.897,26.475 601.563,26.3083 602.5,27C 601.906,27.4643 601.239,27.631 600.5,27.5 Z"/></g>
<g><path style="opacity:0.006" fill="#f5f4f9" d="M 446.5,28.5 C 445.761,28.631 445.094,28.4643 444.5,28C 445.437,27.3083 446.103,27.475 446.5,28.5 Z"/></g>
<g><path style="opacity:0.004" fill="#f4f5f9" d="M 603.5,28.5 C 603.897,27.475 604.563,27.3083 605.5,28C 604.906,28.4643 604.239,28.631 603.5,28.5 Z"/></g>
<g><path style="opacity:0.008" fill="#f4f4f9" d="M 443.5,29.5 C 442.761,29.631 442.094,29.4643 441.5,29C 442.437,28.3083 443.103,28.475 443.5,29.5 Z"/></g>
<g><path style="opacity:0.004" fill="#f5f5f9" d="M 606.5,29.5 C 606.897,28.475 607.563,28.3083 608.5,29C 607.906,29.4643 607.239,29.631 606.5,29.5 Z"/></g>
<g><path style="opacity:0.006" fill="#f5f5fa" d="M 440.5,30.5 C 439.761,30.631 439.094,30.4643 438.5,30C 439.437,29.3083 440.103,29.475 440.5,30.5 Z"/></g>
<g><path style="opacity:0.006" fill="#f5f6f9" d="M 609.5,30.5 C 609.897,29.475 610.563,29.3083 611.5,30C 610.906,30.4643 610.239,30.631 609.5,30.5 Z"/></g>
<g><path style="opacity:0.004" fill="#f8f8fb" d="M 434.5,31.5 C 434.897,30.475 435.563,30.3083 436.5,31C 435.906,31.4643 435.239,31.631 434.5,31.5 Z"/></g>
<g><path style="opacity:0.006" fill="#f5f5fa" d="M 612.5,31.5 C 612.897,30.475 613.563,30.3083 614.5,31C 613.906,31.4643 613.239,31.631 612.5,31.5 Z"/></g>
<g><path style="opacity:0.004" fill="#f9f9fb" d="M 431.5,32.5 C 432.167,31.1667 432.833,31.1667 433.5,32.5C 432.833,32.5 432.167,32.5 431.5,32.5 Z"/></g>
<g><path style="opacity:0.004" fill="#fafafc" d="M 616.5,32.5 C 617.167,31.1667 617.833,31.1667 618.5,32.5C 617.833,32.5 617.167,32.5 616.5,32.5 Z"/></g>
<g><path style="opacity:0.006" fill="#f5f6f9" d="M 431.5,32.5 C 431.103,33.525 430.437,33.6917 429.5,33C 430.094,32.5357 430.761,32.369 431.5,32.5 Z"/></g>
<g><path style="opacity:1" fill="#2f3192" d="M 521.5,29.5 C 523.857,29.3367 526.19,29.5034 528.5,30C 654.104,71.5917 779.771,112.425 905.5,152.5C 905.667,304.167 905.5,455.834 905,607.5C 903.017,633.738 896.684,658.738 886,682.5C 868.694,716.814 847.027,748.147 821,776.5C 785.449,813.406 746.949,846.573 705.5,876C 647.934,916.236 587.434,951.403 524,981.5C 432.523,937.702 348.356,883.535 271.5,819C 252.022,800.187 233.189,780.687 215,760.5C 188.478,729.456 168.145,694.789 154,656.5C 148.736,639.92 145.736,622.92 145,605.5C 144.333,454.5 144.333,303.5 145,152.5C 270.617,111.571 396.117,70.5714 521.5,29.5 Z"/></g>
<g><path style="opacity:0.006" fill="#f5f5fa" d="M 618.5,32.5 C 619.239,32.369 619.906,32.5357 620.5,33C 619.563,33.6917 618.897,33.525 618.5,32.5 Z"/></g>
<g><path style="opacity:0.006" fill="#f6f6fa" d="M 428.5,34.5 C 427.761,34.631 427.094,34.4643 426.5,34C 427.437,33.3083 428.103,33.475 428.5,34.5 Z"/></g>
<g><path style="opacity:0.006" fill="#f6f6fb" d="M 621.5,34.5 C 621.897,33.475 622.563,33.3083 623.5,34C 622.906,34.4643 622.239,34.631 621.5,34.5 Z"/></g>
<g><path style="opacity:0.006" fill="#f7f6fb" d="M 425.5,35.5 C 424.761,35.631 424.094,35.4643 423.5,35C 424.437,34.3083 425.103,34.475 425.5,35.5 Z"/></g>
<g><path style="opacity:0.006" fill="#f7f7fb" d="M 624.5,35.5 C 624.897,34.475 625.563,34.3083 626.5,35C 625.906,35.4643 625.239,35.631 624.5,35.5 Z"/></g>
<g><path style="opacity:0.008" fill="#f9f9fc" d="M 422.5,36.5 C 421.761,36.631 421.094,36.4643 420.5,36C 421.437,35.3083 422.103,35.475 422.5,36.5 Z"/></g>
<g><path style="opacity:0.004" fill="#f9f9fc" d="M 627.5,36.5 C 627.897,35.475 628.563,35.3083 629.5,36C 628.906,36.4643 628.239,36.631 627.5,36.5 Z"/></g>
<g><path style="opacity:0.008" fill="#fbfbfc" d="M 419.5,37.5 C 418.761,37.631 418.094,37.4643 417.5,37C 418.437,36.3083 419.103,36.475 419.5,37.5 Z"/></g>
<g><path style="opacity:0.004" fill="#f9f9fb" d="M 630.5,37.5 C 630.897,36.475 631.563,36.3083 632.5,37C 631.906,37.4643 631.239,37.631 630.5,37.5 Z"/></g>
<g><path style="opacity:0.008" fill="#fafafc" d="M 416.5,38.5 C 415.761,38.631 415.094,38.4643 414.5,38C 415.437,37.3083 416.103,37.475 416.5,38.5 Z"/></g>
<g><path style="opacity:0.004" fill="#f8f8fb" d="M 633.5,38.5 C 633.897,37.475 634.563,37.3083 635.5,38C 634.906,38.4643 634.239,38.631 633.5,38.5 Z"/></g>
<g><path style="opacity:0.008" fill="#f7f7fa" d="M 410.5,39.5 C 410.897,38.475 411.563,38.3083 412.5,39C 411.906,39.4643 411.239,39.631 410.5,39.5 Z"/></g>
<g><path style="opacity:0.004" fill="#f8f8fb" d="M 637.5,39.5 C 637.897,38.475 638.563,38.3083 639.5,39C 638.906,39.4643 638.239,39.631 637.5,39.5 Z"/></g>
<g><path style="opacity:0.008" fill="#f8f7fb" d="M 407.5,40.5 C 407.897,39.475 408.563,39.3083 409.5,40C 408.906,40.4643 408.239,40.631 407.5,40.5 Z"/></g>
<g><path style="opacity:0.004" fill="#f9f8fb" d="M 640.5,40.5 C 640.897,39.475 641.563,39.3083 642.5,40C 641.906,40.4643 641.239,40.631 640.5,40.5 Z"/></g>
<g><path style="opacity:0.006" fill="#f8f8fb" d="M 404.5,41.5 C 404.897,40.475 405.563,40.3083 406.5,41C 405.906,41.4643 405.239,41.631 404.5,41.5 Z"/></g>
<g><path style="opacity:0.006" fill="#f8f8fb" d="M 643.5,41.5 C 643.897,40.475 644.563,40.3083 645.5,41C 644.906,41.4643 644.239,41.631 643.5,41.5 Z"/></g>
<g><path style="opacity:0.006" fill="#f7f8fa" d="M 403.5,42.5 C 402.761,42.631 402.094,42.4643 401.5,42C 402.437,41.3083 403.103,41.475 403.5,42.5 Z"/></g>
<g><path style="opacity:0.006" fill="#f8f8fb" d="M 646.5,42.5 C 646.897,41.475 647.563,41.3083 648.5,42C 647.906,42.4643 647.239,42.631 646.5,42.5 Z"/></g>
<g><path style="opacity:0.006" fill="#f7f7fb" d="M 400.5,43.5 C 399.761,43.631 399.094,43.4643 398.5,43C 399.437,42.3083 400.103,42.475 400.5,43.5 Z"/></g>
<g><path style="opacity:0.004" fill="#f8f7fb" d="M 649.5,43.5 C 649.897,42.475 650.563,42.3083 651.5,43C 650.906,43.4643 650.239,43.631 649.5,43.5 Z"/></g>
<g><path style="opacity:0.006" fill="#f6f6fa" d="M 397.5,44.5 C 396.761,44.631 396.094,44.4643 395.5,44C 396.437,43.3083 397.103,43.475 397.5,44.5 Z"/></g>
<g><path style="opacity:0.006" fill="#f6f6fb" d="M 652.5,44.5 C 652.897,43.475 653.563,43.3083 654.5,44C 653.906,44.4643 653.239,44.631 652.5,44.5 Z"/></g>
<g><path style="opacity:0.008" fill="#f5f5fa" d="M 394.5,45.5 C 393.761,45.631 393.094,45.4643 392.5,45C 393.437,44.3083 394.103,44.475 394.5,45.5 Z"/></g>
<g><path style="opacity:0.004" fill="#f4f4f9" d="M 655.5,45.5 C 655.897,44.475 656.563,44.3083 657.5,45C 656.906,45.4643 656.239,45.631 655.5,45.5 Z"/></g>
<g><path style="opacity:0.004" fill="#f4f5f9" d="M 388.5,46.5 C 388.897,45.475 389.563,45.3083 390.5,46C 389.906,46.4643 389.239,46.631 388.5,46.5 Z"/></g>
<g><path style="opacity:0.004" fill="#f6f6fa" d="M 659.5,46.5 C 659.897,45.475 660.563,45.3083 661.5,46C 660.906,46.4643 660.239,46.631 659.5,46.5 Z"/></g>
<g><path style="opacity:0.008" fill="#f4f4f9" d="M 387.5,47.5 C 386.761,47.631 386.094,47.4643 385.5,47C 386.437,46.3083 387.103,46.475 387.5,47.5 Z"/></g>
<g><path style="opacity:0.004" fill="#f5f5fa" d="M 662.5,47.5 C 662.897,46.475 663.563,46.3083 664.5,47C 663.906,47.4643 663.239,47.631 662.5,47.5 Z"/></g>
<g><path style="opacity:0.004" fill="#f4f4f9" d="M 384.5,48.5 C 383.761,48.631 383.094,48.4643 382.5,48C 383.437,47.3083 384.103,47.475 384.5,48.5 Z"/></g>
<g><path style="opacity:0.004" fill="#f5f5fa" d="M 665.5,48.5 C 665.897,47.475 666.563,47.3083 667.5,48C 666.906,48.4643 666.239,48.631 665.5,48.5 Z"/></g>
<g><path style="opacity:0.004" fill="#f4f3f9" d="M 381.5,49.5 C 380.761,49.631 380.094,49.4643 379.5,49C 380.437,48.3083 381.103,48.475 381.5,49.5 Z"/></g>
<g><path style="opacity:0.004" fill="#f5f4f9" d="M 668.5,49.5 C 668.897,48.475 669.563,48.3083 670.5,49C 669.906,49.4643 669.239,49.631 668.5,49.5 Z"/></g>
<g><path style="opacity:0.004" fill="#f4f4f9" d="M 378.5,50.5 C 377.761,50.631 377.094,50.4643 376.5,50C 377.437,49.3083 378.103,49.475 378.5,50.5 Z"/></g>
<g><path style="opacity:0.004" fill="#f5f5f9" d="M 671.5,50.5 C 671.897,49.475 672.563,49.3083 673.5,50C 672.906,50.4643 672.239,50.631 671.5,50.5 Z"/></g>
<g><path style="opacity:0.006" fill="#f6f6fa" d="M 677.5,52.5 C 677.897,51.475 678.563,51.3083 679.5,52C 678.906,52.4643 678.239,52.631 677.5,52.5 Z"/></g>
<g><path style="opacity:0.006" fill="#f6f6fa" d="M 369.5,53.5 C 368.761,53.631 368.094,53.4643 367.5,53C 368.437,52.3083 369.103,52.475 369.5,53.5 Z"/></g>
<g><path style="opacity:0.006" fill="#f6f6fa" d="M 680.5,53.5 C 680.897,52.475 681.563,52.3083 682.5,53C 681.906,53.4643 681.239,53.631 680.5,53.5 Z"/></g>
<g><path style="opacity:0.006" fill="#f6f6fa" d="M 366.5,54.5 C 365.761,54.631 365.094,54.4643 364.5,54C 365.437,53.3083 366.103,53.475 366.5,54.5 Z"/></g>
<g><path style="opacity:0.006" fill="#f6f6fb" d="M 683.5,54.5 C 683.897,53.475 684.563,53.3083 685.5,54C 684.906,54.4643 684.239,54.631 683.5,54.5 Z"/></g>
<g><path style="opacity:0.006" fill="#f6f6fa" d="M 363.5,55.5 C 362.761,55.631 362.094,55.4643 361.5,55C 362.437,54.3083 363.103,54.475 363.5,55.5 Z"/></g>
<g><path style="opacity:0.006" fill="#f6f6fa" d="M 686.5,55.5 C 686.897,54.475 687.563,54.3083 688.5,55C 687.906,55.4643 687.239,55.631 686.5,55.5 Z"/></g>
<g><path style="opacity:0.006" fill="#f6f6fa" d="M 360.5,56.5 C 359.761,56.631 359.094,56.4643 358.5,56C 359.437,55.3083 360.103,55.475 360.5,56.5 Z"/></g>
<g><path style="opacity:0.006" fill="#f6f6fa" d="M 689.5,56.5 C 689.897,55.475 690.563,55.3083 691.5,56C 690.906,56.4643 690.239,56.631 689.5,56.5 Z"/></g>
<g><path style="opacity:0.006" fill="#f7f7fb" d="M 357.5,57.5 C 356.761,57.631 356.094,57.4643 355.5,57C 356.437,56.3083 357.103,56.475 357.5,57.5 Z"/></g>
<g><path style="opacity:0.006" fill="#f7f7fb" d="M 692.5,57.5 C 692.897,56.475 693.563,56.3083 694.5,57C 693.906,57.4643 693.239,57.631 692.5,57.5 Z"/></g>
<g><path style="opacity:0.008" fill="#f9f9fc" d="M 354.5,58.5 C 353.761,58.631 353.094,58.4643 352.5,58C 353.437,57.3083 354.103,57.475 354.5,58.5 Z"/></g>
<g><path style="opacity:0.006" fill="#f9fafb" d="M 695.5,58.5 C 695.897,57.475 696.563,57.3083 697.5,58C 696.906,58.4643 696.239,58.631 695.5,58.5 Z"/></g>
<g><path style="opacity:0.008" fill="#fbfbfd" d="M 351.5,59.5 C 350.761,59.631 350.094,59.4643 349.5,59C 350.437,58.3083 351.103,58.475 351.5,59.5 Z"/></g>
<g><path style="opacity:0.004" fill="#f9f9fb" d="M 698.5,59.5 C 698.897,58.475 699.563,58.3083 700.5,59C 699.906,59.4643 699.239,59.631 698.5,59.5 Z"/></g>
<g><path style="opacity:0.008" fill="#fafafc" d="M 348.5,60.5 C 347.761,60.631 347.094,60.4643 346.5,60C 347.437,59.3083 348.103,59.475 348.5,60.5 Z"/></g>
<g><path style="opacity:0.004" fill="#f8f8fb" d="M 701.5,60.5 C 701.897,59.475 702.563,59.3083 703.5,60C 702.906,60.4643 702.239,60.631 701.5,60.5 Z"/></g>
<g><path style="opacity:0.008" fill="#f9fafc" d="M 345.5,61.5 C 344.761,61.631 344.094,61.4643 343.5,61C 344.437,60.3083 345.103,60.475 345.5,61.5 Z"/></g>
<g><path style="opacity:0.004" fill="#f7f7fb" d="M 704.5,61.5 C 704.897,60.475 705.563,60.3083 706.5,61C 705.906,61.4643 705.239,61.631 704.5,61.5 Z"/></g>
<g><path style="opacity:0.006" fill="#f7f7fa" d="M 339.5,62.5 C 339.897,61.475 340.563,61.3083 341.5,62C 340.906,62.4643 340.239,62.631 339.5,62.5 Z"/></g>
<g><path style="opacity:1" fill="#fdfdfe" d="M 521.5,61.5 C 524.91,61.4571 528.243,61.9571 531.5,63C 648.035,101.401 764.701,139.234 881.5,176.5C 881.5,238.833 881.5,301.167 881.5,363.5C 643.833,363.5 406.167,363.5 168.5,363.5C 168.5,301.167 168.5,238.833 168.5,176.5C 286.306,138.421 403.973,100.088 521.5,61.5 Z"/></g>
<g><path style="opacity:0.006" fill="#f7f7fa" d="M 708.5,62.5 C 708.897,61.475 709.563,61.3083 710.5,62C 709.906,62.4643 709.239,62.631 708.5,62.5 Z"/></g>
<g><path style="opacity:0.008" fill="#f8f7fb" d="M 336.5,63.5 C 336.897,62.475 337.563,62.3083 338.5,63C 337.906,63.4643 337.239,63.631 336.5,63.5 Z"/></g>
<g><path style="opacity:0.004" fill="#f8f8fb" d="M 711.5,63.5 C 711.897,62.475 712.563,62.3083 713.5,63C 712.906,63.4643 712.239,63.631 711.5,63.5 Z"/></g>
<g><path style="opacity:0.006" fill="#f8f8fb" d="M 333.5,64.5 C 333.897,63.475 334.563,63.3083 335.5,64C 334.906,64.4643 334.239,64.631 333.5,64.5 Z"/></g>
<g><path style="opacity:0.006" fill="#f7f7fb" d="M 714.5,64.5 C 714.897,63.475 715.563,63.3083 716.5,64C 715.906,64.4643 715.239,64.631 714.5,64.5 Z"/></g>
<g><path style="opacity:0.006" fill="#f6f6fa" d="M 332.5,65.5 C 331.761,65.631 331.094,65.4643 330.5,65C 331.437,64.3083 332.103,64.475 332.5,65.5 Z"/></g>
<g><path style="opacity:0.006" fill="#f6f6fa" d="M 717.5,65.5 C 717.897,64.475 718.563,64.3083 719.5,65C 718.906,65.4643 718.239,65.631 717.5,65.5 Z"/></g>
<g><path style="opacity:0.008" fill="#f6f5f9" d="M 329.5,66.5 C 328.761,66.631 328.094,66.4643 327.5,66C 328.437,65.3083 329.103,65.475 329.5,66.5 Z"/></g>
<g><path style="opacity:0.004" fill="#f4f4f9" d="M 720.5,66.5 C 720.897,65.475 721.563,65.3083 722.5,66C 721.906,66.4643 721.239,66.631 720.5,66.5 Z"/></g>
<g><path style="opacity:0.008" fill="#f4f4f9" d="M 326.5,67.5 C 325.761,67.631 325.094,67.4643 324.5,67C 325.437,66.3083 326.103,66.475 326.5,67.5 Z"/></g>
<g><path style="opacity:0.004" fill="#f3f3f9" d="M 723.5,67.5 C 723.897,66.475 724.563,66.3083 725.5,67C 724.906,67.4643 724.239,67.631 723.5,67.5 Z"/></g>
<g><path style="opacity:0.008" fill="#f3f4f9" d="M 323.5,68.5 C 322.761,68.631 322.094,68.4643 321.5,68C 322.437,67.3083 323.103,67.475 323.5,68.5 Z"/></g>
<g><path style="opacity:0.004" fill="#f7f7fc" d="M 727.5,68.5 C 727.897,67.475 728.563,67.3083 729.5,68C 728.906,68.4643 728.239,68.631 727.5,68.5 Z"/></g>
<g><path style="opacity:0.004" fill="#f6f6fb" d="M 317.5,69.5 C 317.897,68.475 318.563,68.3083 319.5,69C 318.906,69.4643 318.239,69.631 317.5,69.5 Z"/></g>
<g><path style="opacity:0.004" fill="#f6f6fb" d="M 730.5,69.5 C 730.897,68.475 731.563,68.3083 732.5,69C 731.906,69.4643 731.239,69.631 730.5,69.5 Z"/></g>
<g><path style="opacity:0.004" fill="#f5f5f9" d="M 316.5,70.5 C 315.761,70.631 315.094,70.4643 314.5,70C 315.437,69.3083 316.103,69.475 316.5,70.5 Z"/></g>
<g><path style="opacity:0.004" fill="#f7f7fa" d="M 733.5,70.5 C 733.897,69.475 734.563,69.3083 735.5,70C 734.906,70.4643 734.239,70.631 733.5,70.5 Z"/></g>
<g><path style="opacity:0.004" fill="#f5f5f9" d="M 313.5,71.5 C 312.761,71.631 312.094,71.4643 311.5,71C 312.437,70.3083 313.103,70.475 313.5,71.5 Z"/></g>
<g><path style="opacity:0.004" fill="#f6f6fa" d="M 736.5,71.5 C 736.897,70.475 737.563,70.3083 738.5,71C 737.906,71.4643 737.239,71.631 736.5,71.5 Z"/></g>
<g><path style="opacity:0.004" fill="#f5f5fa" d="M 310.5,72.5 C 309.761,72.631 309.094,72.4643 308.5,72C 309.437,71.3083 310.103,71.475 310.5,72.5 Z"/></g>
<g><path style="opacity:0.004" fill="#f6f6fa" d="M 739.5,72.5 C 739.897,71.475 740.563,71.3083 741.5,72C 740.906,72.4643 740.239,72.631 739.5,72.5 Z"/></g>
<g><path style="opacity:0.004" fill="#f6f6fa" d="M 307.5,73.5 C 306.761,73.631 306.094,73.4643 305.5,73C 306.437,72.3083 307.103,72.475 307.5,73.5 Z"/></g>
<g><path style="opacity:0.004" fill="#f6f6fa" d="M 742.5,73.5 C 742.897,72.475 743.563,72.3083 744.5,73C 743.906,73.4643 743.239,73.631 742.5,73.5 Z"/></g>
<g><path style="opacity:0.004" fill="#f7f7fb" d="M 304.5,74.5 C 303.761,74.631 303.094,74.4643 302.5,74C 303.437,73.3083 304.103,73.475 304.5,74.5 Z"/></g>
<g><path style="opacity:0.004" fill="#f7f7fb" d="M 745.5,74.5 C 745.897,73.475 746.563,73.3083 747.5,74C 746.906,74.4643 746.239,74.631 745.5,74.5 Z"/></g>
<g><path style="opacity:0.004" fill="#f8f8fb" d="M 301.5,75.5 C 300.761,75.631 300.094,75.4643 299.5,75C 300.437,74.3083 301.103,74.475 301.5,75.5 Z"/></g>
<g><path style="opacity:0.004" fill="#f9f9fb" d="M 748.5,75.5 C 748.897,74.475 749.563,74.3083 750.5,75C 749.906,75.4643 749.239,75.631 748.5,75.5 Z"/></g>
<g><path style="opacity:0.004" fill="#f8f8fb" d="M 298.5,76.5 C 297.761,76.631 297.094,76.4643 296.5,76C 297.437,75.3083 298.103,75.475 298.5,76.5 Z"/></g>
<g><path style="opacity:0.004" fill="#f8f8fb" d="M 751.5,76.5 C 751.897,75.475 752.563,75.3083 753.5,76C 752.906,76.4643 752.239,76.631 751.5,76.5 Z"/></g>
<g><path style="opacity:0.006" fill="#f6f7fa" d="M 293.5,77.5 C 293.897,76.475 294.563,76.3083 295.5,77C 294.906,77.4643 294.239,77.631 293.5,77.5 Z"/></g>
<g><path style="opacity:0.004" fill="#f7f7fb" d="M 754.5,77.5 C 754.897,76.475 755.563,76.3083 756.5,77C 755.906,77.4643 755.239,77.631 754.5,77.5 Z"/></g>
<g><path style="opacity:0.006" fill="#f6f6fa" d="M 290.5,78.5 C 290.897,77.475 291.563,77.3083 292.5,78C 291.906,78.4643 291.239,78.631 290.5,78.5 Z"/></g>
<g><path style="opacity:0.006" fill="#f6f6fa" d="M 757.5,78.5 C 757.897,77.475 758.563,77.3083 759.5,78C 758.906,78.4643 758.239,78.631 757.5,78.5 Z"/></g>
<g><path style="opacity:0.006" fill="#f7f7fb" d="M 289.5,79.5 C 288.761,79.631 288.094,79.4643 287.5,79C 288.437,78.3083 289.103,78.475 289.5,79.5 Z"/></g>
<g><path style="opacity:0.006" fill="#f7f7fb" d="M 760.5,79.5 C 760.897,78.475 761.563,78.3083 762.5,79C 761.906,79.4643 761.239,79.631 760.5,79.5 Z"/></g>
<g><path style="opacity:0.006" fill="#fafafc" d="M 286.5,80.5 C 285.761,80.631 285.094,80.4643 284.5,80C 285.437,79.3083 286.103,79.475 286.5,80.5 Z"/></g>
<g><path style="opacity:0.006" fill="#fafafc" d="M 763.5,80.5 C 763.897,79.475 764.563,79.3083 765.5,80C 764.906,80.4643 764.239,80.631 763.5,80.5 Z"/></g>
<g><path style="opacity:0.008" fill="#fcfbfd" d="M 283.5,81.5 C 282.761,81.631 282.094,81.4643 281.5,81C 282.437,80.3083 283.103,80.475 283.5,81.5 Z"/></g>
<g><path style="opacity:0.004" fill="#f9f9fc" d="M 766.5,81.5 C 766.897,80.475 767.563,80.3083 768.5,81C 767.906,81.4643 767.239,81.631 766.5,81.5 Z"/></g>
<g><path style="opacity:0.008" fill="#fafbfc" d="M 280.5,82.5 C 279.761,82.631 279.094,82.4643 278.5,82C 279.437,81.3083 280.103,81.475 280.5,82.5 Z"/></g>
<g><path style="opacity:0.004" fill="#f8f9fb" d="M 769.5,82.5 C 769.897,81.475 770.563,81.3083 771.5,82C 770.906,82.4643 770.239,82.631 769.5,82.5 Z"/></g>
<g><path style="opacity:0.008" fill="#fafafc" d="M 277.5,83.5 C 276.761,83.631 276.094,83.4643 275.5,83C 276.437,82.3083 277.103,82.475 277.5,83.5 Z"/></g>
<g><path style="opacity:0.004" fill="#f8f8fb" d="M 772.5,83.5 C 772.897,82.475 773.563,82.3083 774.5,83C 773.906,83.4643 773.239,83.631 772.5,83.5 Z"/></g>
<g><path style="opacity:0.008" fill="#f7f7fb" d="M 271.5,84.5 C 271.897,83.475 272.563,83.3083 273.5,84C 272.906,84.4643 272.239,84.631 271.5,84.5 Z"/></g>
<g><path style="opacity:0.004" fill="#f8f8fb" d="M 776.5,84.5 C 776.897,83.475 777.563,83.3083 778.5,84C 777.906,84.4643 777.239,84.631 776.5,84.5 Z"/></g>
<g><path style="opacity:0.006" fill="#f6f6fa" d="M 268.5,85.5 C 268.897,84.475 269.563,84.3083 270.5,85C 269.906,85.4643 269.239,85.631 268.5,85.5 Z"/></g>
<g><path style="opacity:0.006" fill="#f6f6fa" d="M 779.5,85.5 C 779.897,84.475 780.563,84.3083 781.5,85C 780.906,85.4643 780.239,85.631 779.5,85.5 Z"/></g>
<g><path style="opacity:0.006" fill="#f6f6fa" d="M 267.5,86.5 C 266.761,86.631 266.094,86.4643 265.5,86C 266.437,85.3083 267.103,85.475 267.5,86.5 Z"/></g>
<g><path style="opacity:0.006" fill="#f6f6fa" d="M 782.5,86.5 C 782.897,85.475 783.563,85.3083 784.5,86C 783.906,86.4643 783.239,86.631 782.5,86.5 Z"/></g>
<g><path style="opacity:0.006" fill="#f4f5f9" d="M 264.5,87.5 C 263.761,87.631 263.094,87.4643 262.5,87C 263.437,86.3083 264.103,86.475 264.5,87.5 Z"/></g>
<g><path style="opacity:0.004" fill="#f4f5f9" d="M 785.5,87.5 C 785.897,86.475 786.563,86.3083 787.5,87C 786.906,87.4643 786.239,87.631 785.5,87.5 Z"/></g>
<g><path style="opacity:0.008" fill="#f3f3f9" d="M 261.5,88.5 C 260.761,88.631 260.094,88.4643 259.5,88C 260.437,87.3083 261.103,87.475 261.5,88.5 Z"/></g>
<g><path style="opacity:1" fill="#4d4d4f" d="M 522.5,85.5 C 634.454,121.707 746.454,157.707 858.5,193.5C 858.5,246.167 858.5,298.833 858.5,351.5C 854.833,351.5 851.167,351.5 847.5,351.5C 847.831,301.595 847.497,251.762 846.5,202C 739.198,167.066 631.864,132.233 524.5,97.5C 417.407,132.031 310.407,166.864 203.5,202C 202.503,251.762 202.169,301.595 202.5,351.5C 198.833,351.5 195.167,351.5 191.5,351.5C 191.5,298.833 191.5,246.167 191.5,193.5C 302.053,157.871 412.386,121.871 522.5,85.5 Z"/></g>
<g><path style="opacity:0.004" fill="#f3f3f9" d="M 788.5,88.5 C 788.897,87.475 789.563,87.3083 790.5,88C 789.906,88.4643 789.239,88.631 788.5,88.5 Z"/></g>
<g><path style="opacity:0.006" fill="#f2f3f8" d="M 258.5,89.5 C 257.761,89.631 257.094,89.4643 256.5,89C 257.437,88.3083 258.103,88.475 258.5,89.5 Z"/></g>
<g><path style="opacity:0.006" fill="#f2f3f8" d="M 791.5,89.5 C 791.897,88.475 792.563,88.3083 793.5,89C 792.906,89.4643 792.239,89.631 791.5,89.5 Z"/></g>
<g><path style="opacity:0.008" fill="#f3f4f8" d="M 255.5,90.5 C 254.761,90.631 254.094,90.4643 253.5,90C 254.437,89.3083 255.103,89.475 255.5,90.5 Z"/></g>
<g><path style="opacity:0.004" fill="#f3f3f9" d="M 794.5,90.5 C 794.897,89.475 795.563,89.3083 796.5,90C 795.906,90.4643 795.239,90.631 794.5,90.5 Z"/></g>
<g><path style="opacity:0.004" fill="#f6f6fa" d="M 249.5,91.5 C 249.897,90.475 250.563,90.3083 251.5,91C 250.906,91.4643 250.239,91.631 249.5,91.5 Z"/></g>
<g><path style="opacity:0.004" fill="#f8f8fb" d="M 798.5,91.5 C 798.897,90.475 799.563,90.3083 800.5,91C 799.906,91.4643 799.239,91.631 798.5,91.5 Z"/></g>
<g><path style="opacity:0.004" fill="#f6f6fa" d="M 248.5,92.5 C 247.761,92.631 247.094,92.4643 246.5,92C 247.437,91.3083 248.103,91.475 248.5,92.5 Z"/></g>
<g><path style="opacity:0.004" fill="#f8f8fb" d="M 801.5,92.5 C 801.897,91.475 802.563,91.3083 803.5,92C 802.906,92.4643 802.239,92.631 801.5,92.5 Z"/></g>
<g><path style="opacity:0.004" fill="#f6f6f9" d="M 245.5,93.5 C 244.761,93.631 244.094,93.4643 243.5,93C 244.437,92.3083 245.103,92.475 245.5,93.5 Z"/></g>
<g><path style="opacity:0.004" fill="#f8f8fa" d="M 804.5,93.5 C 804.897,92.475 805.563,92.3083 806.5,93C 805.906,93.4643 805.239,93.631 804.5,93.5 Z"/></g>
<g><path style="opacity:0.004" fill="#f7f7fa" d="M 242.5,94.5 C 241.761,94.631 241.094,94.4643 240.5,94C 241.437,93.3083 242.103,93.475 242.5,94.5 Z"/></g>
<g><path style="opacity:0.004" fill="#f9f9fb" d="M 807.5,94.5 C 807.897,93.475 808.563,93.3083 809.5,94C 808.906,94.4643 808.239,94.631 807.5,94.5 Z"/></g>
<g><path style="opacity:0.004" fill="#f8f8fa" d="M 239.5,95.5 C 238.761,95.631 238.094,95.4643 237.5,95C 238.437,94.3083 239.103,94.475 239.5,95.5 Z"/></g>
<g><path style="opacity:0.004" fill="#f9f9fb" d="M 810.5,95.5 C 810.897,94.475 811.563,94.3083 812.5,95C 811.906,95.4643 811.239,95.631 810.5,95.5 Z"/></g>
<g><path style="opacity:0.004" fill="#f9f8fb" d="M 236.5,96.5 C 235.761,96.631 235.094,96.4643 234.5,96C 235.437,95.3083 236.103,95.475 236.5,96.5 Z"/></g>
<g><path style="opacity:0.004" fill="#f9f9fc" d="M 813.5,96.5 C 813.897,95.475 814.563,95.3083 815.5,96C 814.906,96.4643 814.239,96.631 813.5,96.5 Z"/></g>
<g><path style="opacity:0.004" fill="#f9f9fc" d="M 231.5,97.5 C 231.897,96.475 232.563,96.3083 233.5,97C 232.906,97.4643 232.239,97.631 231.5,97.5 Z"/></g>
<g><path style="opacity:0.004" fill="#fafafc" d="M 816.5,97.5 C 816.897,96.475 817.563,96.3083 818.5,97C 817.906,97.4643 817.239,97.631 816.5,97.5 Z"/></g>
<g><path style="opacity:0.004" fill="#f8f8fb" d="M 228.5,98.5 C 228.897,97.475 229.563,97.3083 230.5,98C 229.906,98.4643 229.239,98.631 228.5,98.5 Z"/></g>
<g><path style="opacity:0.004" fill="#f9f9fb" d="M 819.5,98.5 C 819.897,97.475 820.563,97.3083 821.5,98C 820.906,98.4643 820.239,98.631 819.5,98.5 Z"/></g>
<g><path style="opacity:0.004" fill="#f7f7fb" d="M 225.5,99.5 C 225.897,98.475 226.563,98.3083 227.5,99C 226.906,99.4643 226.239,99.631 225.5,99.5 Z"/></g>
<g><path style="opacity:0.004" fill="#f7f7fb" d="M 822.5,99.5 C 822.897,98.475 823.563,98.3083 824.5,99C 823.906,99.4643 823.239,99.631 822.5,99.5 Z"/></g>
<g><path style="opacity:0.006" fill="#f7f7fa" d="M 222.5,100.5 C 222.897,99.475 223.563,99.3083 224.5,100C 223.906,100.464 223.239,100.631 222.5,100.5 Z"/></g>
<g><path style="opacity:0.006" fill="#f7f7fa" d="M 825.5,100.5 C 825.897,99.475 826.563,99.3083 827.5,100C 826.906,100.464 826.239,100.631 825.5,100.5 Z"/></g>
<g><path style="opacity:0.008" fill="#f8f7fb" d="M 219.5,101.5 C 219.897,100.475 220.563,100.308 221.5,101C 220.906,101.464 220.239,101.631 219.5,101.5 Z"/></g>
<g><path style="opacity:0.006" fill="#f7f7fb" d="M 828.5,101.5 C 828.897,100.475 829.563,100.308 830.5,101C 829.906,101.464 829.239,101.631 828.5,101.5 Z"/></g>
<g><path style="opacity:0.008" fill="#f8f8fb" d="M 216.5,102.5 C 216.897,101.475 217.563,101.308 218.5,102C 217.906,102.464 217.239,102.631 216.5,102.5 Z"/></g>
<g><path style="opacity:0.004" fill="#f9f9fb" d="M 831.5,102.5 C 831.897,101.475 832.563,101.308 833.5,102C 832.906,102.464 832.239,102.631 831.5,102.5 Z"/></g>
<g><path style="opacity:0.006" fill="#fafafc" d="M 215.5,103.5 C 214.761,103.631 214.094,103.464 213.5,103C 214.437,102.308 215.103,102.475 215.5,103.5 Z"/></g>
<g><path style="opacity:0.006" fill="#fafafc" d="M 834.5,103.5 C 834.897,102.475 835.563,102.308 836.5,103C 835.906,103.464 835.239,103.631 834.5,103.5 Z"/></g>
<g><path style="opacity:0.008" fill="#fbfbfd" d="M 212.5,104.5 C 211.761,104.631 211.094,104.464 210.5,104C 211.437,103.308 212.103,103.475 212.5,104.5 Z"/></g>
<g><path style="opacity:0.004" fill="#f9f9fc" d="M 837.5,104.5 C 837.897,103.475 838.563,103.308 839.5,104C 838.906,104.464 838.239,104.631 837.5,104.5 Z"/></g>
<g><path style="opacity:0.008" fill="#fafafc" d="M 209.5,105.5 C 208.761,105.631 208.094,105.464 207.5,105C 208.437,104.308 209.103,104.475 209.5,105.5 Z"/></g>
<g><path style="opacity:0.004" fill="#f8f8fb" d="M 840.5,105.5 C 840.897,104.475 841.563,104.308 842.5,105C 841.906,105.464 841.239,105.631 840.5,105.5 Z"/></g>
<g><path style="opacity:0.008" fill="#f6f7fa" d="M 203.5,106.5 C 203.897,105.475 204.563,105.308 205.5,106C 204.906,106.464 204.239,106.631 203.5,106.5 Z"/></g>
<g><path style="opacity:0.004" fill="#f9f8fb" d="M 844.5,106.5 C 844.897,105.475 845.563,105.308 846.5,106C 845.906,106.464 845.239,106.631 844.5,106.5 Z"/></g>
<g><path style="opacity:0.006" fill="#f6f6fa" d="M 200.5,107.5 C 200.897,106.475 201.563,106.308 202.5,107C 201.906,107.464 201.239,107.631 200.5,107.5 Z"/></g>
<g><path style="opacity:0.006" fill="#f7f7fa" d="M 847.5,107.5 C 847.897,106.475 848.563,106.308 849.5,107C 848.906,107.464 848.239,107.631 847.5,107.5 Z"/></g>
<g><path style="opacity:0.008" fill="#f4f4f9" d="M 199.5,108.5 C 198.761,108.631 198.094,108.464 197.5,108C 198.437,107.308 199.103,107.475 199.5,108.5 Z"/></g>
<g><path style="opacity:0.004" fill="#f5f5fa" d="M 850.5,108.5 C 850.897,107.475 851.563,107.308 852.5,108C 851.906,108.464 851.239,108.631 850.5,108.5 Z"/></g>
<g><path style="opacity:0.008" fill="#f4f4f9" d="M 196.5,109.5 C 195.761,109.631 195.094,109.464 194.5,109C 195.437,108.308 196.103,108.475 196.5,109.5 Z"/></g>
<g><path style="opacity:0.004" fill="#f5f4f9" d="M 853.5,109.5 C 853.897,108.475 854.563,108.308 855.5,109C 854.906,109.464 854.239,109.631 853.5,109.5 Z"/></g>
<g><path style="opacity:0.008" fill="#f3f3f9" d="M 193.5,110.5 C 192.761,110.631 192.094,110.464 191.5,110C 192.437,109.308 193.103,109.475 193.5,110.5 Z"/></g>
<g><path style="opacity:0.004" fill="#f4f4f9" d="M 856.5,110.5 C 856.897,109.475 857.563,109.308 858.5,110C 857.906,110.464 857.239,110.631 856.5,110.5 Z"/></g>
<g><path style="opacity:0.008" fill="#f3f3f9" d="M 190.5,111.5 C 189.761,111.631 189.094,111.464 188.5,111C 189.437,110.308 190.103,110.475 190.5,111.5 Z"/></g>
<g><path style="opacity:0.004" fill="#f3f3f9" d="M 859.5,111.5 C 859.897,110.475 860.563,110.308 861.5,111C 860.906,111.464 860.239,111.631 859.5,111.5 Z"/></g>
<g><path style="opacity:0.004" fill="#f7f7fa" d="M 186.5,112.5 C 185.761,112.631 185.094,112.464 184.5,112C 185.437,111.308 186.103,111.475 186.5,112.5 Z"/></g>
<g><path style="opacity:0.004" fill="#f8f8fb" d="M 863.5,112.5 C 863.897,111.475 864.563,111.308 865.5,112C 864.906,112.464 864.239,112.631 863.5,112.5 Z"/></g>
<g><path style="opacity:0.004" fill="#f7f7fa" d="M 183.5,113.5 C 182.761,113.631 182.094,113.464 181.5,113C 182.437,112.308 183.103,112.475 183.5,113.5 Z"/></g>
<g><path style="opacity:0.004" fill="#f6f6fa" d="M 866.5,113.5 C 866.897,112.475 867.563,112.308 868.5,113C 867.906,113.464 867.239,113.631 866.5,113.5 Z"/></g>
<g><path style="opacity:0.004" fill="#f7f7fa" d="M 180.5,114.5 C 179.761,114.631 179.094,114.464 178.5,114C 179.437,113.308 180.103,113.475 180.5,114.5 Z"/></g>
<g><path style="opacity:0.004" fill="#f9f9fb" d="M 869.5,114.5 C 869.897,113.475 870.563,113.308 871.5,114C 870.906,114.464 870.239,114.631 869.5,114.5 Z"/></g>
<g><path style="opacity:0.004" fill="#f8f8fb" d="M 177.5,115.5 C 176.761,115.631 176.094,115.464 175.5,115C 176.437,114.308 177.103,114.475 177.5,115.5 Z"/></g>
<g><path style="opacity:0.004" fill="#f9f9fc" d="M 872.5,115.5 C 872.897,114.475 873.563,114.308 874.5,115C 873.906,115.464 873.239,115.631 872.5,115.5 Z"/></g>
<g><path style="opacity:0.006" fill="#f6f6fa" d="M 877.5,117.5 C 877.897,116.475 878.563,116.308 879.5,117C 878.906,117.464 878.239,117.631 877.5,117.5 Z"/></g>
<g><path style="opacity:0.006" fill="#f7f6fb" d="M 169.5,118.5 C 168.761,118.631 168.094,118.464 167.5,118C 168.437,117.308 169.103,117.475 169.5,118.5 Z"/></g>
<g><path style="opacity:0.006" fill="#f6f7fa" d="M 880.5,118.5 C 880.897,117.475 881.563,117.308 882.5,118C 881.906,118.464 881.239,118.631 880.5,118.5 Z"/></g>
<g><path style="opacity:0.008" fill="#f9f9fc" d="M 166.5,119.5 C 165.761,119.631 165.094,119.464 164.5,119C 165.437,118.308 166.103,118.475 166.5,119.5 Z"/></g>
<g><path style="opacity:0.006" fill="#f8f9fb" d="M 883.5,119.5 C 883.897,118.475 884.563,118.308 885.5,119C 884.906,119.464 884.239,119.631 883.5,119.5 Z"/></g>
<g><path style="opacity:0.008" fill="#fbfbfc" d="M 163.5,120.5 C 162.761,120.631 162.094,120.464 161.5,120C 162.437,119.308 163.103,119.475 163.5,120.5 Z"/></g>
<g><path style="opacity:0.004" fill="#f9f9fb" d="M 886.5,120.5 C 886.897,119.475 887.563,119.308 888.5,120C 887.906,120.464 887.239,120.631 886.5,120.5 Z"/></g>
<g><path style="opacity:0.008" fill="#fafafc" d="M 160.5,121.5 C 159.761,121.631 159.094,121.464 158.5,121C 159.437,120.308 160.103,120.475 160.5,121.5 Z"/></g>
<g><path style="opacity:0.004" fill="#f8f8fb" d="M 889.5,121.5 C 889.897,120.475 890.563,120.308 891.5,121C 890.906,121.464 890.239,121.631 889.5,121.5 Z"/></g>
<g><path style="opacity:0.008" fill="#f9f9fc" d="M 157.5,122.5 C 156.761,122.631 156.094,122.464 155.5,122C 156.437,121.308 157.103,121.475 157.5,122.5 Z"/></g>
<g><path style="opacity:0.004" fill="#f8f8fb" d="M 892.5,122.5 C 892.897,121.475 893.563,121.308 894.5,122C 893.906,122.464 893.239,122.631 892.5,122.5 Z"/></g>
<g><path style="opacity:0.006" fill="#f7f7fb" d="M 151.5,123.5 C 151.897,122.475 152.563,122.308 153.5,123C 152.906,123.464 152.239,123.631 151.5,123.5 Z"/></g>
<g><path style="opacity:0.006" fill="#f7f7fa" d="M 896.5,123.5 C 896.897,122.475 897.563,122.308 898.5,123C 897.906,123.464 897.239,123.631 896.5,123.5 Z"/></g>
<g><path style="opacity:0.008" fill="#f8f7fb" d="M 148.5,124.5 C 148.897,123.475 149.563,123.308 150.5,124C 149.906,124.464 149.239,124.631 148.5,124.5 Z"/></g>
<g><path style="opacity:0.006" fill="#f7f7fb" d="M 899.5,124.5 C 899.897,123.475 900.563,123.308 901.5,124C 900.906,124.464 900.239,124.631 899.5,124.5 Z"/></g>
<g><path style="opacity:0.006" fill="#fafafc" d="M 145.5,125.5 C 145.897,124.475 146.563,124.308 147.5,125C 146.906,125.464 146.239,125.631 145.5,125.5 Z"/></g>
<g><path style="opacity:0.006" fill="#f9fafb" d="M 902.5,125.5 C 902.897,124.475 903.563,124.308 904.5,125C 903.906,125.464 903.239,125.631 902.5,125.5 Z"/></g>
<g><path style="opacity:0.008" fill="#fafafc" d="M 144.5,126.5 C 143.761,126.631 143.094,126.464 142.5,126C 143.437,125.308 144.103,125.475 144.5,126.5 Z"/></g>
<g><path style="opacity:0.004" fill="#f8f8fb" d="M 905.5,126.5 C 905.897,125.475 906.563,125.308 907.5,126C 906.906,126.464 906.239,126.631 905.5,126.5 Z"/></g>
<g><path style="opacity:0.008" fill="#f8f8fb" d="M 141.5,127.5 C 140.761,127.631 140.094,127.464 139.5,127C 140.437,126.308 141.103,126.475 141.5,127.5 Z"/></g>
<g><path style="opacity:0.004" fill="#f7f7fa" d="M 908.5,127.5 C 908.897,126.475 909.563,126.308 910.5,127C 909.906,127.464 909.239,127.631 908.5,127.5 Z"/></g>
<g><path style="opacity:0.008" fill="#f7f7fa" d="M 138.5,128.5 C 137.761,128.631 137.094,128.464 136.5,128C 137.437,127.308 138.103,127.475 138.5,128.5 Z"/></g>
<g><path style="opacity:0.004" fill="#f6f6fa" d="M 911.5,128.5 C 911.897,127.475 912.563,127.308 913.5,128C 912.906,128.464 912.239,128.631 911.5,128.5 Z"/></g>
<g><path style="opacity:0.008" fill="#f5f5f9" d="M 132.5,129.5 C 132.897,128.475 133.563,128.308 134.5,129C 133.906,129.464 133.239,129.631 132.5,129.5 Z"/></g>
<g><path style="opacity:0.004" fill="#f7f7fa" d="M 915.5,129.5 C 915.897,128.475 916.563,128.308 917.5,129C 916.906,129.464 916.239,129.631 915.5,129.5 Z"/></g>
<g><path style="opacity:0.008" fill="#f4f4f8" d="M 129.5,130.5 C 129.897,129.475 130.563,129.308 131.5,130C 130.906,130.464 130.239,130.631 129.5,130.5 Z"/></g>
<g><path style="opacity:0.004" fill="#f6f6fa" d="M 918.5,130.5 C 918.897,129.475 919.563,129.308 920.5,130C 919.906,130.464 919.239,130.631 918.5,130.5 Z"/></g>
<g><path style="opacity:0.008" fill="#f4f5f9" d="M 128.5,131.5 C 127.761,131.631 127.094,131.464 126.5,131C 127.437,130.308 128.103,130.475 128.5,131.5 Z"/></g>
<g><path style="opacity:0.004" fill="#f5f5fa" d="M 921.5,131.5 C 921.897,130.475 922.563,130.308 923.5,131C 922.906,131.464 922.239,131.631 921.5,131.5 Z"/></g>
<g><path style="opacity:0.004" fill="#f8f8fb" d="M 924.5,132.5 C 925.077,131.227 925.743,131.227 926.5,132.5C 926.03,133.463 925.363,133.463 924.5,132.5 Z"/></g>
<g><path style="opacity:0.004" fill="#f9f9fc" d="M 125.5,132.5 C 124.637,133.463 123.97,133.463 123.5,132.5C 124.257,131.227 124.923,131.227 125.5,132.5 Z"/></g>
<g><path style="opacity:0.272" fill="#3a383b" d="M 124.5,157.5 C 125.333,311.333 125.833,465.333 126,619.5C 126.521,624.852 127.187,630.185 128,635.5C 134.363,667.594 146.03,697.594 163,725.5C 180.779,753.686 201.446,779.686 225,803.5C 239.506,817.672 254.339,831.506 269.5,845C 347.912,909.318 433.078,963.485 525,1007.5C 525.833,1006.67 526.667,1005.83 527.5,1005C 600.598,970.499 669.598,929.499 734.5,882C 780.095,848.41 821.262,809.91 858,766.5C 876.674,743.178 892.341,717.844 905,690.5C 915.545,667.987 921.879,644.321 924,619.5C 924.167,465.333 924.667,311.333 925.5,157.5C 925.168,311.737 925.501,465.903 926.5,620C 926.579,653.603 919.746,685.769 906,716.5C 891.491,746.878 873.491,774.878 852,800.5C 809.115,848.627 761.282,890.794 708.5,927C 650.4,967.011 589.233,1002.18 525,1032.5C 423.084,985.334 330.251,924.834 246.5,851C 215.586,822.107 188.419,790.274 165,755.5C 142.954,722.03 129.62,685.363 125,645.5C 124.818,636.922 124.318,628.422 123.5,620C 124.499,465.903 124.832,311.737 124.5,157.5 Z"/></g>
<g><path style="opacity:1" fill="#fdfdfe" d="M 168.5,520.5 C 406.167,520.5 643.833,520.5 881.5,520.5C 890.586,595.176 872.42,662.176 827,721.5C 796.76,759.074 762.593,792.574 724.5,822C 662.64,869.037 596.14,908.87 525,941.5C 440.107,903 362.273,853.833 291.5,794C 262.739,768.916 237.239,741.083 215,710.5C 175.37,653.309 159.87,589.976 168.5,520.5 Z"/></g>
<g><path style="opacity:1" fill="#4d4d4f" d="M 191.5,532.5 C 195.167,532.5 198.833,532.5 202.5,532.5C 196.252,586.117 207.752,635.45 237,680.5C 259.175,712.689 285.008,741.855 314.5,768C 378.65,822.023 448.816,867.19 525,903.5C 605.715,865.087 679.549,816.587 746.5,758C 776.573,730.93 801.74,700.097 822,665.5C 844.269,623.9 852.769,579.567 847.5,532.5C 851.167,532.5 854.833,532.5 858.5,532.5C 865.141,594.619 849.974,650.619 813,700.5C 782.461,740.706 746.961,775.872 706.5,806C 649.911,848.815 589.244,885.315 524.5,915.5C 443.901,877.399 369.901,829.565 302.5,772C 269.459,742.98 241.626,709.814 219,672.5C 195.322,628.779 186.155,582.113 191.5,532.5 Z"/></g>
<g><path style="opacity:1" fill="#696868" d="M 649.5,614.5 C 650.489,619.975 650.822,625.642 650.5,631.5C 636.5,631.5 622.5,631.5 608.5,631.5C 608.167,631.5 607.833,631.5 607.5,631.5C 621.323,630.504 635.323,630.171 649.5,630.5C 649.5,625.167 649.5,619.833 649.5,614.5 Z"/></g>
<g><path style="opacity:1" fill="#696868" d="M 464.5,614.5 C 465.489,619.975 465.822,625.642 465.5,631.5C 451.5,631.5 437.5,631.5 423.5,631.5C 423.167,631.5 422.833,631.5 422.5,631.5C 436.323,630.504 450.323,630.171 464.5,630.5C 464.5,625.167 464.5,619.833 464.5,614.5 Z"/></g>
<g><path style="opacity:1" fill="#3a383b" d="M 538.5,680.5 C 531.08,680.797 523.746,680.464 516.5,679.5C 505.322,641.787 493.988,604.121 482.5,566.5C 489.833,566.5 497.167,566.5 504.5,566.5C 512.53,595.617 521.03,624.617 530,653.5C 538.822,625.213 547.488,596.88 556,568.5C 561.536,566.575 567.369,565.908 573.5,566.5C 561.839,604.484 550.172,642.484 538.5,680.5 Z"/></g>
<g><path style="opacity:1" fill="#39373a" d="M 402.5,566.5 C 426.833,566.5 451.167,566.5 475.5,566.5C 475.5,572.167 475.5,577.833 475.5,583.5C 457.833,583.5 440.167,583.5 422.5,583.5C 422.5,593.833 422.5,604.167 422.5,614.5C 436.5,614.5 450.5,614.5 464.5,614.5C 464.5,619.833 464.5,625.167 464.5,630.5C 450.323,630.171 436.323,630.504 422.5,631.5C 422.5,642.167 422.5,652.833 422.5,663.5C 440.5,663.5 458.5,663.5 476.5,663.5C 476.5,669.167 476.5,674.833 476.5,680.5C 451.833,680.5 427.167,680.5 402.5,680.5C 402.5,642.5 402.5,604.5 402.5,566.5 Z"/></g>
<g><path style="opacity:1" fill="#3b393c" d="M 386.5,662.5 C 386.5,668.5 386.5,674.5 386.5,680.5C 363.167,680.5 339.833,680.5 316.5,680.5C 316.5,642.5 316.5,604.5 316.5,566.5C 323.833,566.5 331.167,566.5 338.5,566.5C 338.5,598.5 338.5,630.5 338.5,662.5C 354.5,662.5 370.5,662.5 386.5,662.5 Z"/></g>
<g><path style="opacity:1" fill="#39373a" d="M 679.5,566.5 C 686.5,566.5 693.5,566.5 700.5,566.5C 700.5,598.5 700.5,630.5 700.5,662.5C 716.833,662.5 733.167,662.5 749.5,662.5C 749.5,668.5 749.5,674.5 749.5,680.5C 726.167,680.5 702.833,680.5 679.5,680.5C 679.5,642.5 679.5,604.5 679.5,566.5 Z"/></g>
<g><path style="opacity:1" fill="#39373a" d="M 587.5,566.5 C 611.833,566.5 636.167,566.5 660.5,566.5C 660.5,572.167 660.5,577.833 660.5,583.5C 642.833,583.5 625.167,583.5 607.5,583.5C 607.5,593.833 607.5,604.167 607.5,614.5C 621.5,614.5 635.5,614.5 649.5,614.5C 649.5,619.833 649.5,625.167 649.5,630.5C 635.323,630.171 621.323,630.504 607.5,631.5C 607.5,642.167 607.5,652.833 607.5,663.5C 625.5,663.5 643.5,663.5 661.5,663.5C 661.5,669.167 661.5,674.833 661.5,680.5C 636.833,680.5 612.167,680.5 587.5,680.5C 587.5,642.5 587.5,604.5 587.5,566.5 Z"/></g>
<g><path style="opacity:1" fill="#979798" d="M 587.5,566.5 C 587.5,604.5 587.5,642.5 587.5,680.5C 612.167,680.5 636.833,680.5 661.5,680.5C 636.672,681.498 611.672,681.831 586.5,681.5C 586.168,642.996 586.501,604.663 587.5,566.5 Z"/></g>
<g><path style="opacity:1" fill="#979797" d="M 402.5,566.5 C 402.5,604.5 402.5,642.5 402.5,680.5C 427.167,680.5 451.833,680.5 476.5,680.5C 451.672,681.498 426.672,681.831 401.5,681.5C 401.168,642.996 401.501,604.663 402.5,566.5 Z"/></g>
<g><path style="opacity:1" fill="#352e6b" d="M 410.5,394.5 C 411.158,395.398 411.824,396.398 412.5,397.5C 413.666,421.493 413.833,445.493 413,469.5C 410.711,480.457 404.211,487.624 393.5,491C 383.728,493.248 374.061,492.915 364.5,490C 363.288,488.893 363.621,488.393 365.5,488.5C 377.349,490.802 388.682,489.302 399.5,484C 406.015,479.138 409.515,472.638 410,464.5C 410.5,441.169 410.667,417.836 410.5,394.5 Z"/></g>
<g><path style="opacity:1" fill="#262162" d="M 757.5,486.5 C 759.185,487.184 760.185,488.517 760.5,490.5C 754.537,491.496 748.537,491.829 742.5,491.5C 742.5,490.5 742.5,489.5 742.5,488.5C 747.944,489.108 752.944,488.442 757.5,486.5 Z"/></g>
<g><path style="opacity:1" fill="#262161" d="M 669.5,476.5 C 670.5,476.5 671.5,476.5 672.5,476.5C 672.5,481.5 672.5,486.5 672.5,491.5C 652.167,491.5 631.833,491.5 611.5,491.5C 611.5,490.5 611.5,489.5 611.5,488.5C 630.833,488.5 650.167,488.5 669.5,488.5C 669.5,484.5 669.5,480.5 669.5,476.5 Z"/></g>
<g><path style="opacity:1" fill="#252062" d="M 491.5,476.5 C 492.5,476.5 493.5,476.5 494.5,476.5C 494.5,481.5 494.5,486.5 494.5,491.5C 474.167,491.5 453.833,491.5 433.5,491.5C 433.5,490.5 433.5,489.5 433.5,488.5C 452.833,488.5 472.167,488.5 491.5,488.5C 491.5,484.5 491.5,480.5 491.5,476.5 Z"/></g>
<g><path style="opacity:1" fill="#262061" d="M 335.5,476.5 C 336.5,476.5 337.5,476.5 338.5,476.5C 338.5,481.5 338.5,486.5 338.5,491.5C 319.5,491.5 300.5,491.5 281.5,491.5C 281.5,490.5 281.5,489.5 281.5,488.5C 299.674,488.83 317.674,488.497 335.5,487.5C 335.5,483.833 335.5,480.167 335.5,476.5 Z"/></g>
<g><path style="opacity:1" fill="#282263" d="M 261.5,453.5 C 263.48,454.848 264.647,456.848 265,459.5C 267.234,478.232 259.067,488.732 240.5,491C 225.504,491.5 210.504,491.667 195.5,491.5C 195.5,490.5 195.5,489.5 195.5,488.5C 211.872,488.888 228.205,488.388 244.5,487C 253.088,484.745 258.754,479.412 261.5,471C 262.742,465.165 262.742,459.331 261.5,453.5 Z"/></g>
<g><path style="opacity:1" fill="#a3a1c1" d="M 430.5,394.5 C 430.5,425.5 430.5,456.5 430.5,487.5C 450.5,487.5 470.5,487.5 490.5,487.5C 490.5,482.833 490.5,478.167 490.5,473.5C 491.404,474.209 491.737,475.209 491.5,476.5C 491.5,480.5 491.5,484.5 491.5,488.5C 472.167,488.5 452.833,488.5 433.5,488.5C 432.167,488.5 430.833,488.5 429.5,488.5C 429.168,456.996 429.502,425.662 430.5,394.5 Z"/></g>
<g><path style="opacity:1" fill="#b0afc9" d="M 278.5,394.5 C 278.5,425.5 278.5,456.5 278.5,487.5C 297.5,487.5 316.5,487.5 335.5,487.5C 317.674,488.497 299.674,488.83 281.5,488.5C 280.167,488.5 278.833,488.5 277.5,488.5C 277.168,456.996 277.502,425.662 278.5,394.5 Z"/></g>
<g><path style="opacity:0.971" fill="#2a2365" d="M 732.5,467.5 C 733.11,468.391 733.443,469.391 733.5,470.5C 721.914,469.522 710.247,469.189 698.5,469.5C 696.295,476.782 694.295,484.116 692.5,491.5C 687.456,491.827 682.456,491.494 677.5,490.5C 677.863,489.817 678.196,489.15 678.5,488.5C 682.106,488.789 685.606,488.456 689,487.5C 690.876,480.707 693.042,474.04 695.5,467.5C 707.833,466.167 720.167,466.167 732.5,467.5 Z"/></g>
<g><path style="opacity:1" fill="#312a69" d="M 481.5,433.5 C 482.404,434.209 482.737,435.209 482.5,436.5C 483.5,436.5 484.5,436.5 485.5,436.5C 485.5,441.167 485.5,445.833 485.5,450.5C 473.833,450.5 462.167,450.5 450.5,450.5C 450.5,458.167 450.5,465.833 450.5,473.5C 449.167,473.5 447.833,473.5 446.5,473.5C 446.5,464.833 446.5,456.167 446.5,447.5C 458.167,447.5 469.833,447.5 481.5,447.5C 481.5,443.167 481.5,438.833 481.5,434.5C 481.5,434.167 481.5,433.833 481.5,433.5 Z"/></g>
<g><path style="opacity:1" fill="#241d5e" d="M 660.5,436.5 C 661.5,436.5 662.5,436.5 663.5,436.5C 663.5,441.167 663.5,445.833 663.5,450.5C 651.833,450.5 640.167,450.5 628.5,450.5C 628.5,458.167 628.5,465.833 628.5,473.5C 627.5,473.5 626.5,473.5 625.5,473.5C 625.5,464.833 625.5,456.167 625.5,447.5C 637.167,447.5 648.833,447.5 660.5,447.5C 660.5,443.833 660.5,440.167 660.5,436.5 Z"/></g>
<g><path style="opacity:1" fill="#292163" d="M 843.5,420.5 C 836.136,443.762 828.636,467.095 821,490.5C 817.943,491.451 814.777,491.784 811.5,491.5C 811.5,490.5 811.5,489.5 811.5,488.5C 813.833,488.5 816.167,488.5 818.5,488.5C 825.971,461.257 834.138,434.257 843,407.5C 843.499,411.821 843.666,416.154 843.5,420.5 Z"/></g>
<g><path style="opacity:1" fill="#2b2464" d="M 258.5,410.5 C 263.82,418.761 263.653,427.094 258,435.5C 255.886,438.121 253.386,440.121 250.5,441.5C 248.516,441.617 246.85,440.95 245.5,439.5C 257.132,433.228 261.465,423.562 258.5,410.5 Z"/></g>
<g><path style="opacity:0.93" fill="#c3c3d6" d="M 489.5,394.5 C 490.404,395.209 490.737,396.209 490.5,397.5C 490.5,401.167 490.5,404.833 490.5,408.5C 476.167,408.5 461.833,408.5 447.5,408.5C 447.5,416.833 447.5,425.167 447.5,433.5C 448.5,433.5 449.5,433.5 450.5,433.5C 460.833,433.5 471.167,433.5 481.5,433.5C 481.5,433.833 481.5,434.167 481.5,434.5C 469.833,434.5 458.167,434.5 446.5,434.5C 446.5,425.5 446.5,416.5 446.5,407.5C 460.833,407.5 475.167,407.5 489.5,407.5C 489.5,403.167 489.5,398.833 489.5,394.5 Z"/></g>
<g><path style="opacity:0.957" fill="#30276c" d="M 757.5,485.5 C 747.064,457.192 737.397,428.526 728.5,399.5C 728.393,397.621 728.893,397.288 730,398.5C 739.408,426.892 748.908,455.226 758.5,483.5C 758.137,484.183 757.804,484.85 757.5,485.5 Z"/></g>
<g><path style="opacity:1" fill="#211a5e" d="M 784.5,412.5 C 785.363,414.421 786.029,416.421 786.5,418.5C 785.502,442.661 785.169,466.994 785.5,491.5C 781.167,491.5 776.833,491.5 772.5,491.5C 772.5,490.5 772.5,489.5 772.5,488.5C 776.042,488.813 779.375,488.479 782.5,487.5C 783.167,462.5 783.833,437.5 784.5,412.5 Z"/></g>
<g><path style="opacity:1" fill="#282162" d="M 598.5,397.5 C 599.5,397.5 600.5,397.5 601.5,397.5C 601.5,402.167 601.5,406.833 601.5,411.5C 593.167,411.5 584.833,411.5 576.5,411.5C 576.5,438.167 576.5,464.833 576.5,491.5C 570.5,491.5 564.5,491.5 558.5,491.5C 558.5,490.5 558.5,489.5 558.5,488.5C 563.5,488.5 568.5,488.5 573.5,488.5C 573.5,461.833 573.5,435.167 573.5,408.5C 581.833,408.5 590.167,408.5 598.5,408.5C 598.5,404.833 598.5,401.167 598.5,397.5 Z"/></g>
<g><path style="opacity:1" fill="#8383b8" d="M 530.5,408.5 C 538.833,408.5 547.167,408.5 555.5,408.5C 555.5,435.167 555.5,461.833 555.5,488.5C 554.502,463.339 554.169,438.005 554.5,412.5C 554.5,411.5 554.5,410.5 554.5,409.5C 547.5,409.5 540.5,409.5 533.5,409.5C 532.209,409.737 531.209,409.404 530.5,408.5 Z"/></g>
<g><path style="opacity:1" fill="#2d286a" d="M 533.5,409.5 C 540.5,409.5 547.5,409.5 554.5,409.5C 554.5,410.5 554.5,411.5 554.5,412.5C 547.5,412.5 540.5,412.5 533.5,412.5C 533.5,411.5 533.5,410.5 533.5,409.5 Z"/></g>
<g><path style="opacity:1" fill="#241e5f" d="M 669.5,397.5 C 670.5,397.5 671.5,397.5 672.5,397.5C 672.5,402.167 672.5,406.833 672.5,411.5C 657.833,411.5 643.167,411.5 628.5,411.5C 628.5,418.833 628.5,426.167 628.5,433.5C 627.5,433.5 626.5,433.5 625.5,433.5C 625.5,425.167 625.5,416.833 625.5,408.5C 640.167,408.5 654.833,408.5 669.5,408.5C 669.5,404.833 669.5,401.167 669.5,397.5 Z"/></g>
<g><path style="opacity:1" fill="#262062" d="M 490.5,397.5 C 491.5,397.5 492.5,397.5 493.5,397.5C 493.5,402.167 493.5,406.833 493.5,411.5C 479.167,411.5 464.833,411.5 450.5,411.5C 450.5,418.833 450.5,426.167 450.5,433.5C 449.5,433.5 448.5,433.5 447.5,433.5C 447.5,425.167 447.5,416.833 447.5,408.5C 461.833,408.5 476.167,408.5 490.5,408.5C 490.5,404.833 490.5,401.167 490.5,397.5 Z"/></g>
<g><path style="opacity:1" fill="#c5c4d5" d="M 668.5,394.5 C 669.404,395.209 669.737,396.209 669.5,397.5C 669.5,401.167 669.5,404.833 669.5,408.5C 654.833,408.5 640.167,408.5 625.5,408.5C 639.657,407.504 653.99,407.171 668.5,407.5C 668.5,403.167 668.5,398.833 668.5,394.5 Z"/></g>
<g><path style="opacity:0.937" fill="#242063" d="M 861.5,397.5 C 862.5,397.5 863.5,397.5 864.5,397.5C 864.5,428.833 864.5,460.167 864.5,491.5C 858.5,491.5 852.5,491.5 846.5,491.5C 846.5,490.5 846.5,489.5 846.5,488.5C 851.5,488.5 856.5,488.5 861.5,488.5C 861.5,458.167 861.5,427.833 861.5,397.5 Z"/></g>
<g><path style="opacity:1" fill="#7d7ba1" d="M 860.5,394.5 C 861.404,395.209 861.737,396.209 861.5,397.5C 861.5,427.833 861.5,458.167 861.5,488.5C 856.5,488.5 851.5,488.5 846.5,488.5C 845.209,488.737 844.209,488.404 843.5,487.5C 849.167,487.5 854.833,487.5 860.5,487.5C 860.5,456.5 860.5,425.5 860.5,394.5 Z"/></g>
<g><path style="opacity:1" fill="#c9cae0" d="M 769.5,394.5 C 769.5,425.5 769.5,456.5 769.5,487.5C 773.833,487.5 778.167,487.5 782.5,487.5C 779.375,488.479 776.042,488.813 772.5,488.5C 771.167,488.5 769.833,488.5 768.5,488.5C 768.168,456.996 768.502,425.662 769.5,394.5 Z"/></g>
<g><path style="opacity:1" fill="#252372" d="M 298.5,397.5 C 299.498,422.328 299.831,447.328 299.5,472.5C 298.5,472.5 297.5,472.5 296.5,472.5C 296.333,447.831 296.5,423.164 297,398.5C 297.333,422.833 297.667,447.167 298,471.5C 298.5,446.836 298.667,422.169 298.5,397.5 Z"/></g>
<g><path style="opacity:1" fill="#3b366f" d="M 295.5,394.5 C 296.1,395.9 297.1,396.9 298.5,397.5C 298.667,422.169 298.5,446.836 298,471.5C 297.667,447.167 297.333,422.833 297,398.5C 296.5,423.164 296.333,447.831 296.5,472.5C 295.502,446.672 295.169,420.672 295.5,394.5 Z"/></g>
<g><path style="opacity:1" fill="#fcfcfd" d="M 769.5,394.5 C 778.192,394.169 786.859,394.502 795.5,395.5C 795.994,397.026 796.661,398.359 797.5,399.5C 802.503,417.007 808.003,434.341 814,451.5C 814.69,452.738 815.19,452.738 815.5,451.5C 821.865,432.733 827.865,413.733 833.5,394.5C 842.5,394.5 851.5,394.5 860.5,394.5C 860.5,425.5 860.5,456.5 860.5,487.5C 854.833,487.5 849.167,487.5 843.5,487.5C 843.5,465.167 843.5,442.833 843.5,420.5C 843.666,416.154 843.499,411.821 843,407.5C 834.138,434.257 825.971,461.257 818.5,488.5C 816.167,488.5 813.833,488.5 811.5,488.5C 810.5,488.5 809.5,488.5 808.5,488.5C 801.473,465.057 794.14,441.724 786.5,418.5C 786.029,416.421 785.363,414.421 784.5,412.5C 784.509,410.692 784.009,409.025 783,407.5C 782.5,434.165 782.333,460.831 782.5,487.5C 778.167,487.5 773.833,487.5 769.5,487.5C 769.5,456.5 769.5,425.5 769.5,394.5 Z"/></g>
<g><path style="opacity:1" fill="#4d4a7c" d="M 784.5,412.5 C 783.833,437.5 783.167,462.5 782.5,487.5C 782.333,460.831 782.5,434.165 783,407.5C 784.009,409.025 784.509,410.692 784.5,412.5 Z"/></g>
<g><path style="opacity:0.965" fill="#2c2369" d="M 815.5,451.5 C 815.19,452.738 814.69,452.738 814,451.5C 808.003,434.341 802.503,417.007 797.5,399.5C 797.393,397.621 797.893,397.288 799,398.5C 805.216,415.978 810.716,433.645 815.5,451.5 Z"/></g>
<g><path style="opacity:1" fill="#fbfbfc" d="M 728.5,399.5 C 737.397,428.526 747.064,457.192 757.5,485.5C 757.5,485.833 757.5,486.167 757.5,486.5C 752.944,488.442 747.944,489.108 742.5,488.5C 741.325,488.719 740.325,488.386 739.5,487.5C 737.491,481.805 735.491,476.138 733.5,470.5C 733.443,469.391 733.11,468.391 732.5,467.5C 726.705,466.17 720.538,465.504 714,465.5C 707.462,465.504 701.295,466.17 695.5,467.5C 693.042,474.04 690.876,480.707 689,487.5C 685.606,488.456 682.106,488.789 678.5,488.5C 677.167,488.5 675.833,488.5 674.5,488.5C 684.296,457.111 694.296,425.778 704.5,394.5C 711.863,394.169 719.197,394.503 726.5,395.5C 726.994,397.026 727.661,398.359 728.5,399.5 Z"/></g>
<g><path style="opacity:1" fill="#6a6792" d="M 732.5,467.5 C 720.167,466.167 707.833,466.167 695.5,467.5C 701.295,466.17 707.462,465.504 714,465.5C 720.538,465.504 726.705,466.17 732.5,467.5 Z"/></g>
<g><path style="opacity:1" fill="#6364a7" d="M 701.5,449.5 C 701.821,451.048 702.821,451.715 704.5,451.5C 712.019,451.825 719.352,451.492 726.5,450.5C 727.043,450.56 727.376,450.893 727.5,451.5C 718.525,452.498 709.525,452.832 700.5,452.5C 700.263,451.209 700.596,450.209 701.5,449.5 Z"/></g>
<g><path style="opacity:1" fill="#272062" d="M 715.5,416.5 C 712.478,428.239 708.812,439.905 704.5,451.5C 702.821,451.715 701.821,451.048 701.5,449.5C 705.198,436.574 709.365,423.907 714,411.5C 715.009,413.025 715.509,414.692 715.5,416.5 Z"/></g>
<g><path style="opacity:1" fill="#2f3192" d="M 715.5,416.5 C 719.767,427.544 723.434,438.877 726.5,450.5C 719.352,451.492 712.019,451.825 704.5,451.5C 708.812,439.905 712.478,428.239 715.5,416.5 Z"/></g>
<g><path style="opacity:1" fill="#fcfcfd" d="M 668.5,394.5 C 668.5,398.833 668.5,403.167 668.5,407.5C 653.99,407.171 639.657,407.504 625.5,408.5C 625.5,416.833 625.5,425.167 625.5,433.5C 626.5,433.5 627.5,433.5 628.5,433.5C 639.167,433.5 649.833,433.5 660.5,433.5C 660.5,434.5 660.5,435.5 660.5,436.5C 660.5,440.167 660.5,443.833 660.5,447.5C 648.833,447.5 637.167,447.5 625.5,447.5C 625.5,456.167 625.5,464.833 625.5,473.5C 626.5,473.5 627.5,473.5 628.5,473.5C 642.167,473.5 655.833,473.5 669.5,473.5C 669.5,474.5 669.5,475.5 669.5,476.5C 669.5,480.5 669.5,484.5 669.5,488.5C 650.167,488.5 630.833,488.5 611.5,488.5C 610.5,488.5 609.5,488.5 608.5,488.5C 608.5,457.167 608.5,425.833 608.5,394.5C 628.5,394.5 648.5,394.5 668.5,394.5 Z"/></g>
<g><path style="opacity:1" fill="#fdfdfd" d="M 598.5,397.5 C 598.5,401.167 598.5,404.833 598.5,408.5C 590.167,408.5 581.833,408.5 573.5,408.5C 573.5,435.167 573.5,461.833 573.5,488.5C 568.5,488.5 563.5,488.5 558.5,488.5C 557.5,488.5 556.5,488.5 555.5,488.5C 555.5,461.833 555.5,435.167 555.5,408.5C 547.167,408.5 538.833,408.5 530.5,408.5C 530.5,403.833 530.5,399.167 530.5,394.5C 553.167,394.5 575.833,394.5 598.5,394.5C 598.5,395.5 598.5,396.5 598.5,397.5 Z"/></g>
<g><path style="opacity:1" fill="#fefefe" d="M 430.5,394.5 C 450.167,394.5 469.833,394.5 489.5,394.5C 489.5,398.833 489.5,403.167 489.5,407.5C 475.167,407.5 460.833,407.5 446.5,407.5C 446.5,416.5 446.5,425.5 446.5,434.5C 458.167,434.5 469.833,434.5 481.5,434.5C 481.5,438.833 481.5,443.167 481.5,447.5C 469.833,447.5 458.167,447.5 446.5,447.5C 446.5,456.167 446.5,464.833 446.5,473.5C 447.833,473.5 449.167,473.5 450.5,473.5C 463.833,473.5 477.167,473.5 490.5,473.5C 490.5,478.167 490.5,482.833 490.5,487.5C 470.5,487.5 450.5,487.5 430.5,487.5C 430.5,456.5 430.5,425.5 430.5,394.5 Z"/></g>
<g><path style="opacity:1" fill="#fdfdfd" d="M 362.5,394.5 C 362.333,416.169 362.5,437.836 363,459.5C 363.198,461.382 363.698,463.048 364.5,464.5C 365.921,469.09 368.921,472.256 373.5,474C 385.886,477.065 393.719,472.565 397,460.5C 397.5,438.503 397.667,416.503 397.5,394.5C 401.833,394.5 406.167,394.5 410.5,394.5C 410.667,417.836 410.5,441.169 410,464.5C 409.515,472.638 406.015,479.138 399.5,484C 388.682,489.302 377.349,490.802 365.5,488.5C 355.744,485.241 349.578,478.575 347,468.5C 345.559,443.871 345.059,419.205 345.5,394.5C 351.167,394.5 356.833,394.5 362.5,394.5 Z"/></g>
<g><path style="opacity:1" fill="#3b356f" d="M 362.5,394.5 C 363.158,395.398 363.824,396.398 364.5,397.5C 365.812,419.869 365.812,442.202 364.5,464.5C 363.698,463.048 363.198,461.382 363,459.5C 362.5,437.836 362.333,416.169 362.5,394.5 Z"/></g>
<g><path style="opacity:1" fill="#fefdfe" d="M 278.5,394.5 C 284.167,394.5 289.833,394.5 295.5,394.5C 295.169,420.672 295.502,446.672 296.5,472.5C 297.5,472.5 298.5,472.5 299.5,472.5C 311.5,472.5 323.5,472.5 335.5,472.5C 335.5,473.833 335.5,475.167 335.5,476.5C 335.5,480.167 335.5,483.833 335.5,487.5C 316.5,487.5 297.5,487.5 278.5,487.5C 278.5,456.5 278.5,425.5 278.5,394.5 Z"/></g>
<g><path style="opacity:1" fill="#faf9fb" d="M 258.5,410.5 C 261.465,423.562 257.132,433.228 245.5,439.5C 246.85,440.95 248.516,441.617 250.5,441.5C 255.527,444.196 259.194,448.196 261.5,453.5C 262.742,459.331 262.742,465.165 261.5,471C 258.754,479.412 253.088,484.745 244.5,487C 228.205,488.388 211.872,488.888 195.5,488.5C 194.5,488.5 193.5,488.5 192.5,488.5C 192.5,457.167 192.5,425.833 192.5,394.5C 209.881,394.072 227.214,394.572 244.5,396C 251.478,398.808 256.145,403.641 258.5,410.5 Z"/></g>
<g><path style="opacity:1" fill="#2e3091" d="M 240.5,451.5 C 243.912,453.251 245.245,456.084 244.5,460C 244.938,466.809 241.938,471.142 235.5,473C 227.507,473.5 219.507,473.666 211.5,473.5C 211.5,465.833 211.5,458.167 211.5,450.5C 221.206,450.245 230.873,450.579 240.5,451.5 Z"/></g>
<g><path style="opacity:1" fill="#211c5e" d="M 240.5,451.5 C 230.873,450.579 221.206,450.245 211.5,450.5C 211.5,458.167 211.5,465.833 211.5,473.5C 210.5,473.5 209.5,473.5 208.5,473.5C 208.5,464.833 208.5,456.167 208.5,447.5C 217.506,447.334 226.506,447.5 235.5,448C 237.584,448.697 239.251,449.864 240.5,451.5 Z"/></g>
<g><path style="opacity:1" fill="#2e3090" d="M 234.5,409.5 C 241.421,411.671 243.921,416.337 242,423.5C 240.833,428.667 237.667,431.833 232.5,433C 225.508,433.5 218.508,433.666 211.5,433.5C 211.5,425.833 211.5,418.167 211.5,410.5C 219.253,410.799 226.92,410.466 234.5,409.5 Z"/></g>
<g><path style="opacity:1" fill="#2a2263" d="M 234.5,409.5 C 226.92,410.466 219.253,410.799 211.5,410.5C 211.5,418.167 211.5,425.833 211.5,433.5C 210.5,433.5 209.5,433.5 208.5,433.5C 208.5,424.833 208.5,416.167 208.5,407.5C 216.507,407.334 224.507,407.5 232.5,408C 233.416,408.278 234.082,408.778 234.5,409.5 Z"/></g>
<g><path style="opacity:1" fill="#c1c0c1" d="M 696.5,282.5 C 697.491,288.979 697.824,295.646 697.5,302.5C 681.167,302.5 664.833,302.5 648.5,302.5C 648.5,300.167 648.5,297.833 648.5,295.5C 664.5,295.5 680.5,295.5 696.5,295.5C 696.5,291.167 696.5,286.833 696.5,282.5 Z"/></g>
<g><path style="opacity:1" fill="#c0c0c0" d="M 618.5,295.5 C 624.167,295.5 629.833,295.5 635.5,295.5C 635.5,297.833 635.5,300.167 635.5,302.5C 629.833,302.5 624.167,302.5 618.5,302.5C 618.5,300.167 618.5,297.833 618.5,295.5 Z"/></g>
<g><path style="opacity:1" fill="#c1c0c1" d="M 564.5,295.5 C 570.5,295.5 576.5,295.5 582.5,295.5C 582.5,297.833 582.5,300.167 582.5,302.5C 576.5,302.5 570.5,302.5 564.5,302.5C 564.5,300.167 564.5,297.833 564.5,295.5 Z"/></g>
<g><path style="opacity:1" fill="#c0c0c0" d="M 533.5,295.5 C 539.167,295.5 544.833,295.5 550.5,295.5C 550.5,297.833 550.5,300.167 550.5,302.5C 544.833,302.5 539.167,302.5 533.5,302.5C 533.5,300.167 533.5,297.833 533.5,295.5 Z"/></g>
<g><path style="opacity:1" fill="#c1c1c2" d="M 489.5,295.5 C 495.167,295.5 500.833,295.5 506.5,295.5C 506.833,295.5 507.167,295.5 507.5,295.5C 507.5,297.833 507.5,300.167 507.5,302.5C 501.5,302.5 495.5,302.5 489.5,302.5C 489.5,300.167 489.5,297.833 489.5,295.5 Z"/></g>
<g><path style="opacity:1" fill="#c1c1c1" d="M 413.5,295.5 C 419.5,295.5 425.5,295.5 431.5,295.5C 431.5,297.833 431.5,300.167 431.5,302.5C 425.5,302.5 419.5,302.5 413.5,302.5C 413.5,300.167 413.5,297.833 413.5,295.5 Z"/></g>
<g><path style="opacity:1" fill="#c1c0c1" d="M 403.5,282.5 C 404.491,288.979 404.824,295.646 404.5,302.5C 388.167,302.5 371.833,302.5 355.5,302.5C 355.5,300.167 355.5,297.833 355.5,295.5C 371.5,295.5 387.5,295.5 403.5,295.5C 403.5,291.167 403.5,286.833 403.5,282.5 Z"/></g>
<g><path style="opacity:1" fill="#bebdc0" d="M 466.5,295.5 C 467.455,297.746 468.122,300.079 468.5,302.5C 462.158,302.666 455.825,302.5 449.5,302C 447.98,300.115 446.98,297.949 446.5,295.5C 443.969,293.13 442.469,290.13 442,286.5C 439.732,284.812 437.565,282.979 435.5,281C 434.207,280.51 432.873,280.343 431.5,280.5C 431.5,278.167 431.5,275.833 431.5,273.5C 435.273,272.822 438.106,274.156 440,277.5C 443.167,283.167 446.333,288.833 449.5,294.5C 455.128,295.495 460.794,295.829 466.5,295.5 Z"/></g>
<g><path style="opacity:1" fill="#bebec0" d="M 758.5,278.5 C 758.023,290.907 751.69,298.74 739.5,302C 728.505,302.5 717.505,302.667 706.5,302.5C 706.5,300.167 706.5,297.833 706.5,295.5C 716.506,295.666 726.506,295.5 736.5,295C 747.36,294.082 754.693,288.582 758.5,278.5 Z"/></g>
<g><path style="opacity:1" fill="#bdbcc0" d="M 291.5,271.5 C 294.734,290.534 306.067,298.701 325.5,296C 336.363,294.625 343.363,288.792 346.5,278.5C 346.839,289.94 341.505,297.774 330.5,302C 321.773,303.929 313.106,303.596 304.5,301C 301.373,298.037 298.373,294.871 295.5,291.5C 292.083,285.311 290.749,278.644 291.5,271.5 Z"/></g>
<g><path style="opacity:1" fill="#c0bfc0" d="M 604.5,272.5 C 604.5,274.833 604.5,277.167 604.5,279.5C 597.167,279.5 589.833,279.5 582.5,279.5C 582.5,277.167 582.5,274.833 582.5,272.5C 589.833,272.5 597.167,272.5 604.5,272.5 Z"/></g>
<g><path style="opacity:1" fill="#b5b4be" d="M 464.5,250.5 C 467.387,260.027 465.387,268.36 458.5,275.5C 456.529,274.177 454.529,272.844 452.5,271.5C 456.704,269.801 460.204,267.134 463,263.5C 464.29,259.27 464.79,254.936 464.5,250.5 Z"/></g>
<g><path style="opacity:1" fill="#bfbec1" d="M 695.5,251.5 C 694.734,260.479 694.401,269.479 694.5,278.5C 685.167,278.5 675.833,278.5 666.5,278.5C 666.5,279.833 666.5,281.167 666.5,282.5C 665.518,279.038 665.185,275.371 665.5,271.5C 674.833,271.5 684.167,271.5 693.5,271.5C 693.5,267.167 693.5,262.833 693.5,258.5C 684.167,258.5 674.833,258.5 665.5,258.5C 665.5,256.167 665.5,253.833 665.5,251.5C 675.5,251.5 685.5,251.5 695.5,251.5 Z"/></g>
<g><path style="opacity:1" fill="#bfbec0" d="M 607.5,238.5 C 608.491,244.979 608.824,251.646 608.5,258.5C 599.833,258.5 591.167,258.5 582.5,258.5C 582.5,256.167 582.5,253.833 582.5,251.5C 590.833,251.5 599.167,251.5 607.5,251.5C 607.5,247.167 607.5,242.833 607.5,238.5 Z"/></g>
<g><path style="opacity:1" fill="#b3b2bd" d="M 524.5,238.5 C 525.491,244.979 525.824,251.646 525.5,258.5C 519.5,258.5 513.5,258.5 507.5,258.5C 507.5,270.833 507.5,283.167 507.5,295.5C 507.167,295.5 506.833,295.5 506.5,295.5C 506.5,280.833 506.5,266.167 506.5,251.5C 512.5,251.5 518.5,251.5 524.5,251.5C 524.5,247.167 524.5,242.833 524.5,238.5 Z"/></g>
<g><path style="opacity:1" fill="#c5c5c8" d="M 471.5,238.5 C 471.5,242.833 471.5,247.167 471.5,251.5C 477.5,251.5 483.5,251.5 489.5,251.5C 489.5,266.167 489.5,280.833 489.5,295.5C 488.505,283.345 488.171,271.011 488.5,258.5C 482.5,258.5 476.5,258.5 470.5,258.5C 470.176,251.646 470.509,244.979 471.5,238.5 Z"/></g>
<g><path style="opacity:1" fill="#bfbec1" d="M 402.5,251.5 C 401.734,260.479 401.401,269.479 401.5,278.5C 392.167,278.5 382.833,278.5 373.5,278.5C 373.5,279.833 373.5,281.167 373.5,282.5C 372.518,279.038 372.185,275.371 372.5,271.5C 381.833,271.5 391.167,271.5 400.5,271.5C 400.5,267.167 400.5,262.833 400.5,258.5C 391.167,258.5 381.833,258.5 372.5,258.5C 372.5,256.167 372.5,253.833 372.5,251.5C 382.5,251.5 392.5,251.5 402.5,251.5 Z"/></g>
<g><path style="opacity:1" fill="#b8b7bd" d="M 343.5,255.5 C 344.014,257.366 344.68,259.2 345.5,261C 345.167,261.5 344.833,262 344.5,262.5C 339.837,263.836 335.171,264.17 330.5,263.5C 329.34,260.245 327.007,258.412 323.5,258C 313.182,257.042 308.515,261.875 309.5,272.5C 307.167,264.764 308.833,257.931 314.5,252C 319.292,249.968 323.959,250.301 328.5,253C 329.211,255.612 330.878,257.112 333.5,257.5C 336.846,256.83 340.179,256.163 343.5,255.5 Z"/></g>
<g><path style="opacity:1" fill="#2d3091" d="M 695.5,251.5 C 685.5,251.5 675.5,251.5 665.5,251.5C 665.5,253.833 665.5,256.167 665.5,258.5C 674.833,258.5 684.167,258.5 693.5,258.5C 693.5,262.833 693.5,267.167 693.5,271.5C 684.167,271.5 674.833,271.5 665.5,271.5C 665.185,275.371 665.518,279.038 666.5,282.5C 676.5,282.5 686.5,282.5 696.5,282.5C 696.5,286.833 696.5,291.167 696.5,295.5C 680.5,295.5 664.5,295.5 648.5,295.5C 648.5,276.5 648.5,257.5 648.5,238.5C 664.167,238.5 679.833,238.5 695.5,238.5C 695.5,242.833 695.5,247.167 695.5,251.5 Z"/></g>
<g><path style="opacity:1" fill="#2f3192" d="M 607.5,238.5 C 607.5,242.833 607.5,247.167 607.5,251.5C 599.167,251.5 590.833,251.5 582.5,251.5C 582.5,253.833 582.5,256.167 582.5,258.5C 589.648,259.492 596.981,259.825 604.5,259.5C 604.5,263.833 604.5,268.167 604.5,272.5C 597.167,272.5 589.833,272.5 582.5,272.5C 582.5,274.833 582.5,277.167 582.5,279.5C 582.5,284.833 582.5,290.167 582.5,295.5C 576.5,295.5 570.5,295.5 564.5,295.5C 564.5,276.5 564.5,257.5 564.5,238.5C 578.833,238.5 593.167,238.5 607.5,238.5 Z"/></g>
<g><path style="opacity:1" fill="#2d3091" d="M 471.5,238.5 C 489.167,238.5 506.833,238.5 524.5,238.5C 524.5,242.833 524.5,247.167 524.5,251.5C 518.5,251.5 512.5,251.5 506.5,251.5C 506.5,266.167 506.5,280.833 506.5,295.5C 500.833,295.5 495.167,295.5 489.5,295.5C 489.5,280.833 489.5,266.167 489.5,251.5C 483.5,251.5 477.5,251.5 471.5,251.5C 471.5,247.167 471.5,242.833 471.5,238.5 Z"/></g>
<g><path style="opacity:1" fill="#2f3192" d="M 464.5,250.5 C 464.79,254.936 464.29,259.27 463,263.5C 460.204,267.134 456.704,269.801 452.5,271.5C 454.529,272.844 456.529,274.177 458.5,275.5C 462.535,281.73 466.201,288.23 469.5,295C 468.552,295.483 467.552,295.649 466.5,295.5C 460.794,295.829 455.128,295.495 449.5,294.5C 446.333,288.833 443.167,283.167 440,277.5C 438.106,274.156 435.273,272.822 431.5,273.5C 431.5,275.833 431.5,278.167 431.5,280.5C 431.5,285.5 431.5,290.5 431.5,295.5C 425.5,295.5 419.5,295.5 413.5,295.5C 413.5,276.5 413.5,257.5 413.5,238.5C 427.212,238.115 440.879,238.615 454.5,240C 459.978,241.456 463.312,244.956 464.5,250.5 Z"/></g>
<g><path style="opacity:1" fill="#c9c9cc" d="M 431.5,251.5 C 435.846,251.334 440.179,251.501 444.5,252C 446.852,252.576 447.852,254.076 447.5,256.5C 447.695,258.725 446.861,260.391 445,261.5C 440.554,262.412 436.054,262.745 431.5,262.5C 431.5,258.833 431.5,255.167 431.5,251.5 Z"/></g>
<g><path style="opacity:1" fill="#2d3091" d="M 402.5,251.5 C 392.5,251.5 382.5,251.5 372.5,251.5C 372.5,253.833 372.5,256.167 372.5,258.5C 381.833,258.5 391.167,258.5 400.5,258.5C 400.5,262.833 400.5,267.167 400.5,271.5C 391.167,271.5 381.833,271.5 372.5,271.5C 372.185,275.371 372.518,279.038 373.5,282.5C 383.5,282.5 393.5,282.5 403.5,282.5C 403.5,286.833 403.5,291.167 403.5,295.5C 387.5,295.5 371.5,295.5 355.5,295.5C 355.5,276.5 355.5,257.5 355.5,238.5C 371.167,238.5 386.833,238.5 402.5,238.5C 402.5,242.833 402.5,247.167 402.5,251.5 Z"/></g>
<g><path style="opacity:1" fill="#2d3091" d="M 635.5,295.5 C 629.833,295.5 624.167,295.5 618.5,295.5C 618.5,276.5 618.5,257.5 618.5,238.5C 624.167,238.5 629.833,238.5 635.5,238.5C 635.5,257.5 635.5,276.5 635.5,295.5 Z"/></g>
<g><path style="opacity:1" fill="#2d3091" d="M 550.5,295.5 C 544.833,295.5 539.167,295.5 533.5,295.5C 533.5,276.5 533.5,257.5 533.5,238.5C 539.167,238.5 544.833,238.5 550.5,238.5C 550.5,257.5 550.5,276.5 550.5,295.5 Z"/></g>
<g><path style="opacity:1" fill="#2e3092" d="M 343.5,255.5 C 340.179,256.163 336.846,256.83 333.5,257.5C 330.878,257.112 329.211,255.612 328.5,253C 323.959,250.301 319.292,249.968 314.5,252C 308.833,257.931 307.167,264.764 309.5,272.5C 310.182,282.002 315.182,285.502 324.5,283C 328.078,280.311 331.078,277.145 333.5,273.5C 338.343,274.219 342.676,275.886 346.5,278.5C 343.363,288.792 336.363,294.625 325.5,296C 306.067,298.701 294.734,290.534 291.5,271.5C 289.649,250.525 299.149,239.192 320,237.5C 332.32,237.024 340.82,242.357 345.5,253.5C 345.253,254.713 344.586,255.38 343.5,255.5 Z"/></g>
<g><path style="opacity:1" fill="#303292" d="M 758.5,278.5 C 754.693,288.582 747.36,294.082 736.5,295C 726.506,295.5 716.506,295.666 706.5,295.5C 706.5,276.5 706.5,257.5 706.5,238.5C 716.839,238.334 727.172,238.5 737.5,239C 749.543,240.71 756.71,247.543 759,259.5C 759.653,265.862 759.487,272.195 758.5,278.5 Z"/></g>
<g><path style="opacity:1" fill="#fbfbfc" d="M 724.5,258.5 C 737.917,257.223 743.25,263.223 740.5,276.5C 739.723,279.112 738.056,280.945 735.5,282C 731.848,282.499 728.182,282.665 724.5,282.5C 724.5,274.5 724.5,266.5 724.5,258.5 Z"/></g>
<g><path style="opacity:1" fill="#bcbbc0" d="M 740.5,276.5 C 743.25,263.223 737.917,257.223 724.5,258.5C 724.5,256.167 724.5,253.833 724.5,251.5C 729.734,250.835 734.568,251.835 739,254.5C 739.667,255.833 740.333,257.167 741,258.5C 741.819,264.681 741.653,270.681 740.5,276.5 Z"/></g>
<g><path style="opacity:1" fill="#d0d0d0" d="M 422.5,631.5 C 422.833,631.5 423.167,631.5 423.5,631.5C 423.5,641.833 423.5,652.167 423.5,662.5C 441.341,662.17 459.008,662.503 476.5,663.5C 458.5,663.5 440.5,663.5 422.5,663.5C 422.5,652.833 422.5,642.167 422.5,631.5 Z"/></g>
<g><path style="opacity:1" fill="#d0d0d0" d="M 607.5,631.5 C 607.833,631.5 608.167,631.5 608.5,631.5C 608.5,641.833 608.5,652.167 608.5,662.5C 626.341,662.17 644.008,662.503 661.5,663.5C 643.5,663.5 625.5,663.5 607.5,663.5C 607.5,652.833 607.5,642.167 607.5,631.5 Z"/></g>
<g><path style="opacity:1" fill="#939393" d="M 386.5,662.5 C 387.49,668.645 387.823,674.978 387.5,681.5C 363.661,681.831 339.994,681.498 316.5,680.5C 339.833,680.5 363.167,680.5 386.5,680.5C 386.5,674.5 386.5,668.5 386.5,662.5 Z"/></g>
<g><path style="opacity:1" fill="#929292" d="M 516.5,679.5 C 523.746,680.464 531.08,680.797 538.5,680.5C 535.016,681.165 531.349,681.499 527.5,681.5C 523.435,681.489 519.768,680.822 516.5,679.5 Z"/></g>
<g><path style="opacity:1" fill="#a2a2a2" d="M 679.5,566.5 C 679.5,604.5 679.5,642.5 679.5,680.5C 702.833,680.5 726.167,680.5 749.5,680.5C 726.006,681.498 702.339,681.831 678.5,681.5C 678.168,642.996 678.501,604.663 679.5,566.5 Z"/></g>
<g><path style="opacity:1" fill="#303292" d="M 522.5,708.5 C 542.825,714.497 563.158,720.497 583.5,726.5C 583.5,763.833 583.5,801.167 583.5,838.5C 563.873,843.986 544.373,849.986 525,856.5C 505.627,849.986 486.127,843.986 466.5,838.5C 466.5,801.167 466.5,763.833 466.5,726.5C 485.427,721.022 504.093,715.022 522.5,708.5 Z"/></g>
<g><path style="opacity:1" fill="#f8f8fa" d="M 525.5,725.5 C 527.833,725.5 530.167,725.5 532.5,725.5C 532.333,758.835 532.5,792.168 533,825.5C 533.785,827.286 534.951,828.786 536.5,830C 541.489,830.499 546.489,830.666 551.5,830.5C 551.5,832.5 551.5,834.5 551.5,836.5C 533.833,836.5 516.167,836.5 498.5,836.5C 498.5,834.5 498.5,832.5 498.5,830.5C 503.511,830.666 508.511,830.499 513.5,830C 516.953,828.272 518.786,825.438 519,821.5C 519.5,794.835 519.667,768.169 519.5,741.5C 512.5,741.5 505.5,741.5 498.5,741.5C 498.5,739.167 498.5,736.833 498.5,734.5C 508.307,733.676 517.307,730.676 525.5,725.5 Z"/></g>
</svg>
