<?xml version="1.0" standalone="no"?>
<!DOCTYPE svg PUBLIC "-//W3C//DTD SVG 20010904//EN"
 "http://www.w3.org/TR/2001/REC-SVG-20010904/DTD/svg10.dtd">
<svg version="1.0" xmlns="http://www.w3.org/2000/svg"
 width="1600.000000pt" height="1600.000000pt" viewBox="0 0 1600.000000 1600.000000"
 preserveAspectRatio="xMidYMid meet">

<g transform="translate(0.000000,1600.000000) scale(0.100000,-0.100000)"
fill="#000000" stroke="none">
<path d="M4916 13316 c-22 -8 -49 -25 -60 -37 l-21 -22 30 18 c29 18 29 18 -7
-24 -20 -24 -40 -56 -43 -72 -4 -16 -11 -29 -16 -29 -15 0 -10 23 12 59 27 44
18 51 -12 9 -32 -44 -39 -149 -14 -199 31 -62 84 -107 139 -120 121 -27 225
54 226 176 l0 40 -85 0 c-69 0 -85 -3 -85 -15 0 -12 11 -14 53 -12 73 5 86
-11 63 -73 -40 -102 -165 -123 -234 -39 -69 83 -67 191 5 266 33 35 116 65
133 48 3 -3 20 -13 38 -23 32 -18 52 -16 52 6 0 8 -4 7 -9 -2 -8 -12 -12 -12
-25 2 -12 11 -13 16 -3 20 17 5 -20 24 -63 31 -20 3 -52 0 -74 -8z m-117 -213
c0 -34 -1 -36 -11 -16 -6 12 -8 29 -5 37 11 27 17 18 16 -21z m20 -78 c7 -19
24 -49 39 -67 l27 -32 -26 19 c-34 25 -54 54 -63 88 -9 39 8 33 23 -8z m301
-19 c-6 -18 -19 -41 -29 -50 -16 -14 -15 -9 5 30 13 26 24 55 25 63 0 10 2 12
6 4 2 -7 0 -28 -7 -47z"/>
<path d="M6064 13105 c0 -115 2 -161 3 -102 2 59 2 154 0 210 -1 56 -3 8 -3
-108z"/>
<path d="M6094 13105 c0 -115 2 -161 3 -102 2 59 2 154 0 210 -1 56 -3 8 -3
-108z"/>
<path d="M9553 13179 c-90 -26 -122 -161 -58 -245 48 -63 140 -68 195 -9 23
25 23 25 4 40 -25 19 -39 19 -54 0 -19 -23 -68 -18 -95 10 -69 68 15 184 93
129 21 -14 25 -14 48 1 l26 17 -23 24 c-12 13 -39 28 -58 34 -41 11 -35 11
-78 -1z"/>
<path d="M9836 13179 c-97 -28 -135 -161 -68 -241 118 -140 301 16 216 184
-23 45 -95 73 -148 57z m88 -90 c30 -35 32 -58 11 -98 -25 -49 -78 -56 -115
-16 -34 37 -33 90 4 121 37 33 69 30 100 -7z"/>
<path d="M10414 13174 c-18 -10 -30 -11 -32 -5 -2 6 -17 11 -33 11 l-29 0 0
-145 0 -145 30 0 30 0 0 91 c0 98 9 125 44 139 22 8 41 55 26 65 -3 2 -20 -3
-36 -11z"/>
<path d="M10543 13183 c-30 -6 -63 -49 -63 -84 0 -38 35 -73 93 -94 39 -14 48
-21 45 -39 -4 -29 -44 -33 -78 -8 -26 19 -27 19 -50 2 -24 -18 -24 -19 -6 -39
43 -48 137 -51 182 -6 48 48 20 121 -55 143 -52 16 -76 39 -60 58 15 19 38 18
60 -2 17 -15 20 -15 44 0 23 15 24 20 13 33 -15 18 -71 44 -90 42 -7 -1 -23
-4 -35 -6z"/>
<path d="M10821 13182 c-114 -17 -147 -203 -48 -274 69 -49 226 -1 163 51 -10
8 -22 7 -49 -4 -50 -21 -107 4 -107 47 0 16 9 18 101 18 l101 0 -7 37 c-17 92
-73 137 -154 125z m71 -79 c35 -32 23 -43 -47 -43 -69 0 -79 8 -48 42 20 22
70 23 95 1z"/>
<path d="M11105 13173 c-20 -11 -30 -12 -33 -4 -2 6 -17 11 -33 11 l-29 0 0
-145 0 -145 30 0 30 0 0 84 c0 98 10 133 43 145 14 5 27 20 30 33 12 44 9 46
-38 21z"/>
<path d="M11256 13179 c-57 -16 -96 -74 -96 -144 0 -104 93 -180 172 -140 21
10 34 12 36 5 2 -5 17 -10 33 -10 l29 0 0 145 0 145 -25 0 c-14 0 -28 -7 -31
-15 -5 -11 -10 -13 -19 -5 -22 18 -69 27 -99 19z m89 -84 c49 -48 18 -145 -46
-145 -37 0 -79 40 -79 75 0 31 24 81 42 88 30 12 60 5 83 -18z"/>
<path d="M10040 13076 c0 -56 5 -117 11 -135 19 -54 91 -77 139 -44 17 12 25
13 28 5 2 -7 17 -12 33 -12 l29 0 0 145 0 145 -30 0 -30 0 0 -95 c0 -89 -2
-98 -25 -121 -25 -25 -55 -26 -80 -2 -5 5 -12 56 -13 113 l-4 105 -29 0 -29 0
0 -104z"/>
<path d="M5270 13157 c-49 -17 -80 -67 -80 -129 0 -90 42 -138 121 -138 143 0
176 210 43 266 -39 16 -39 16 -84 1z m75 -43 c21 -8 45 -56 45 -89 0 -33 -24
-81 -45 -89 -58 -22 -110 20 -110 89 0 69 52 111 110 89z"/>
<path d="M6212 13154 c-43 -22 -66 -67 -66 -130 0 -83 49 -137 123 -136 43 1
91 26 91 48 0 22 -28 28 -45 10 -23 -22 -78 -20 -99 3 -10 11 -15 25 -11 31 4
7 43 28 86 47 88 40 93 51 40 105 -34 35 -77 43 -119 22z m82 -40 c33 -13 16
-40 -39 -65 -58 -27 -65 -27 -65 1 0 47 58 82 104 64z"/>
<path d="M5808 13120 c-21 -23 -38 -49 -38 -58 0 -10 7 -3 17 16 9 18 25 38
37 44 21 11 21 11 2 -11 -27 -30 -34 -122 -12 -156 12 -18 13 -23 2 -19 -12 5
-34 47 -50 94 -3 11 -5 9 -5 -4 -2 -39 39 -104 75 -121 35 -16 88 -14 99 6 10
16 35 10 35 -8 -1 -10 -7 -36 -15 -58 -17 -47 -12 -57 9 -18 20 37 21 21 1
-17 -16 -30 -35 -40 -35 -18 0 9 -3 9 -12 0 -23 -23 -62 -13 -85 21 -13 17
-23 25 -23 18 0 -8 8 -23 17 -33 15 -17 15 -18 0 -13 -9 4 -19 15 -22 26 -4
10 -11 19 -17 19 -20 0 19 -45 55 -63 31 -16 41 -16 76 -6 69 20 76 40 79 227
4 160 3 162 -18 162 -12 0 -18 -4 -15 -10 10 -16 -21 -12 -35 5 -7 8 -28 15
-48 15 -28 0 -43 -8 -74 -40z m159 -113 c-6 -47 -41 -87 -76 -87 -31 0 -42 7
-64 40 -43 62 -3 165 66 172 29 3 34 -1 56 -41 17 -33 22 -54 18 -84z m20 56
c-2 -16 -4 -3 -4 27 0 30 2 43 4 28 2 -16 2 -40 0 -55z m0 -160 c-2 -21 -4 -4
-4 37 0 41 2 58 4 38 2 -21 2 -55 0 -75z"/>
<path d="M5781 13024 c0 -11 3 -14 6 -6 3 7 2 16 -1 19 -3 4 -6 -2 -5 -13z"/>
<path d="M12885 12350 c-5 -8 -8 -50 -20 -287 l-5 -103 72 2 c51 1 60 3 29 5
l-44 4 7 177 c7 170 6 178 -13 194 -11 10 -23 13 -26 8z"/>
<path d="M6947 11549 c-59 -14 -91 -34 -140 -89 -66 -74 -90 -143 -85 -250 3
-71 9 -94 33 -139 35 -64 84 -115 140 -144 60 -32 173 -30 239 3 91 47 137
125 144 248 l5 83 -134 -3 -134 -3 -3 -47 -3 -48 87 0 87 0 -6 -30 c-19 -95
-139 -147 -240 -105 -71 29 -117 110 -117 203 0 67 17 115 57 162 61 73 182
81 251 17 l24 -22 35 40 34 40 -28 23 c-64 54 -169 80 -246 61z"/>
<path d="M8750 11224 l0 -315 45 3 45 3 3 313 2 312 -47 0 -48 0 0 -316z"/>
<path d="M7465 11356 c-129 -60 -168 -265 -72 -382 17 -20 49 -45 71 -55 81
-37 175 -14 233 55 86 105 67 289 -38 362 -49 34 -144 44 -194 20z m155 -116
c53 -56 50 -159 -6 -211 -19 -18 -37 -24 -71 -24 -38 0 -49 5 -73 32 -52 58
-49 157 7 209 40 37 106 34 143 -6z"/>
<path d="M7925 11356 c-129 -58 -168 -265 -72 -382 37 -44 97 -74 152 -74 83
0 169 66 194 149 49 164 -44 322 -188 321 -31 -1 -69 -7 -86 -14z m155 -116
c53 -56 50 -159 -6 -211 -19 -18 -37 -24 -71 -24 -37 0 -49 5 -72 31 -51 57
-48 160 6 210 40 37 106 34 143 -6z"/>
<path d="M8375 11358 c-78 -43 -120 -128 -113 -231 11 -172 158 -266 272 -176
15 12 30 19 33 16 3 -4 2 -27 -1 -51 -8 -54 -45 -101 -83 -109 -35 -7 -86 14
-106 43 -15 22 -16 22 -61 5 -25 -10 -46 -20 -46 -23 0 -3 10 -20 22 -37 73
-107 247 -115 318 -15 43 61 50 109 50 352 l0 228 -45 0 c-38 0 -45 -3 -45
-20 0 -25 -2 -25 -46 5 -40 27 -112 34 -149 13z m153 -111 c28 -26 45 -87 36
-134 -23 -122 -177 -128 -204 -8 -29 127 81 220 168 142z"/>
<path d="M9018 11350 c-71 -38 -110 -116 -109 -220 1 -211 217 -306 351 -154
l32 37 -38 23 c-38 23 -39 23 -54 5 -57 -71 -187 -41 -193 44 l-2 30 148 3
147 3 0 32 c0 80 -42 160 -104 198 -42 25 -128 25 -178 -1z m127 -74 c32 -14
71 -67 58 -80 -4 -3 -48 -6 -100 -6 -82 0 -93 2 -93 18 1 24 30 59 60 71 34
13 36 13 75 -3z"/>
<path d="M5092 10501 c-151 -56 -240 -187 -250 -367 -4 -75 -1 -105 16 -161
63 -205 250 -314 442 -257 63 19 130 62 154 100 18 26 18 26 -21 67 -21 23
-39 43 -40 46 -1 2 -23 -15 -48 -37 -63 -55 -129 -71 -206 -49 -60 18 -117 66
-143 122 -36 75 -39 195 -7 276 15 40 69 98 112 120 75 38 191 20 244 -37 l25
-26 45 48 45 49 -40 36 c-89 81 -222 109 -328 70z"/>
<path d="M10088 10506 c-29 -21 -40 -64 -27 -103 29 -88 149 -62 149 32 0 46
-34 85 -73 85 -18 0 -40 -6 -49 -14z"/>
<path d="M6050 10110 l0 -390 55 0 c54 0 55 0 55 30 0 37 9 38 41 4 64 -70
172 -71 259 -3 108 83 133 303 50 429 -34 51 -98 97 -148 106 -52 10 -122 -11
-154 -46 -15 -17 -31 -30 -35 -30 -5 0 -7 65 -5 145 l4 145 -61 0 -61 0 0
-390z m324 29 c74 -58 88 -184 29 -256 -117 -145 -306 21 -222 195 12 24 36
52 53 63 42 26 106 25 140 -2z"/>
<path d="M10358 10353 l-3 -78 -42 -3 -43 -3 0 -55 0 -54 44 0 44 0 4 -172 c3
-159 5 -176 26 -209 27 -45 75 -69 134 -69 83 0 88 4 88 75 l0 62 -49 -5 c-75
-7 -82 11 -79 179 l3 134 58 3 57 3 0 54 0 54 -57 3 -58 3 -3 78 -3 77 -59 0
-59 0 -3 -77z"/>
<path d="M6796 10280 c-185 -56 -247 -343 -108 -502 72 -81 209 -101 306 -44
38 22 96 86 96 106 0 3 -20 16 -45 30 l-45 24 -34 -33 c-70 -68 -176 -47 -219
42 -33 65 -30 66 173 64 l180 -2 0 55 c0 98 -36 181 -98 223 -63 45 -136 57
-206 37z m125 -115 c30 -16 69 -68 69 -92 0 -10 -32 -13 -125 -13 -81 0 -125
4 -125 10 0 25 33 72 63 90 39 24 78 25 118 5z"/>
<path d="M7404 10279 c-18 -5 -46 -25 -63 -44 -17 -19 -33 -35 -36 -35 -3 0
-5 16 -5 35 l0 35 -60 0 -60 0 0 -275 0 -275 65 0 65 0 0 166 c0 181 8 215 59
255 22 18 35 20 84 16 l57 -5 0 63 c0 78 -19 89 -106 64z"/>
<path d="M7657 10276 c-51 -19 -76 -42 -99 -94 -47 -105 20 -196 169 -232 93
-21 126 -67 83 -110 -14 -14 -33 -20 -67 -20 -41 0 -50 5 -83 38 l-36 39 -52
-30 -52 -29 18 -30 c101 -174 411 -124 412 67 0 88 -52 140 -174 176 -71 21
-116 50 -116 76 0 27 39 53 81 53 32 0 47 -6 68 -29 l27 -29 47 24 c26 14 47
29 47 34 0 5 -14 25 -31 45 -51 57 -159 80 -242 51z"/>
<path d="M8164 10271 c-54 -24 -105 -77 -135 -137 -20 -41 -24 -64 -24 -144 0
-103 13 -140 72 -210 64 -77 191 -102 289 -56 45 21 114 89 114 113 0 4 -20
19 -45 33 l-45 24 -34 -33 c-62 -60 -156 -52 -206 19 -12 16 -22 41 -23 56
l-2 25 182 -1 c171 -1 182 0 188 19 9 30 -12 137 -37 188 -52 105 -187 152
-294 104z m153 -111 c34 -20 68 -74 58 -90 -9 -14 -245 -13 -245 0 0 48 71
110 125 110 17 0 44 -9 62 -20z"/>
<path d="M8715 10267 c-93 -44 -146 -131 -153 -248 -7 -111 15 -176 81 -244
78 -80 181 -98 284 -51 47 22 113 91 113 117 0 5 -23 20 -50 34 l-51 26 -33
-36 c-33 -34 -53 -40 -115 -35 -84 7 -139 144 -97 243 40 97 157 118 222 40
l20 -25 52 26 c57 29 58 36 15 94 -56 75 -194 104 -288 59z"/>
<path d="M9880 10274 c-19 -8 -47 -29 -62 -47 l-27 -32 -1 38 0 37 -60 0 -60
0 0 -275 0 -275 59 0 59 0 4 168 c4 182 12 210 65 252 24 19 37 21 86 17 l57
-5 0 63 c0 48 -4 64 -16 69 -26 10 -67 6 -104 -10z"/>
<path d="M5493 10213 c12 -32 58 -152 103 -267 l81 -210 -49 -117 c-26 -65
-48 -123 -48 -131 0 -10 14 -12 62 -8 l62 5 148 385 c81 211 148 388 148 392
0 4 -29 8 -64 8 l-65 0 -19 -52 c-10 -29 -39 -108 -63 -176 -36 -102 -45 -120
-55 -107 -7 9 -38 88 -69 176 l-57 159 -69 0 -68 0 22 -57z"/>
<path d="M9112 10053 c3 -211 4 -219 28 -262 34 -61 68 -83 133 -89 59 -5 126
21 149 58 18 28 28 25 28 -10 l0 -30 60 0 60 0 0 275 0 275 -62 0 -63 0 0
-168 c-1 -183 -11 -226 -59 -257 -33 -22 -92 -22 -117 0 -31 29 -39 80 -39
258 l0 167 -61 0 -61 0 4 -217z"/>
<path d="M10070 9995 l0 -275 60 0 60 0 0 275 0 275 -60 0 -60 0 0 -275z"/>
<path d="M10661 10214 c12 -30 57 -146 100 -257 43 -111 79 -210 79 -220 0
-10 -22 -73 -49 -138 -37 -89 -46 -121 -37 -125 7 -3 37 -4 66 -2 50 3 53 5
66 38 7 19 72 190 145 380 72 190 136 353 141 363 8 17 4 18 -63 15 l-71 -3
-61 -172 c-33 -95 -63 -170 -67 -168 -4 2 -35 81 -70 175 l-63 170 -68 0 -69
0 21 -56z"/>
<path d="M5860 9104 c-60 -19 -132 -73 -175 -132 -154 -209 -88 -524 136 -644
38 -20 58 -23 144 -23 97 0 103 1 158 35 32 19 71 48 87 65 l30 31 -44 49 -43
49 -33 -32 c-50 -50 -88 -66 -155 -66 -148 0 -242 118 -233 292 7 157 96 253
234 253 56 0 103 -18 145 -58 l26 -24 42 48 42 48 -46 42 c-82 76 -206 102
-315 67z"/>
<path d="M7683 9098 c-21 -23 -26 -42 -24 -85 3 -61 92 -86 130 -37 64 81 -37
196 -106 122z"/>
<path d="M8297 9100 c-62 -49 -32 -159 43 -159 76 0 106 110 43 159 -32 25
-53 25 -86 0z"/>
<path d="M8070 9103 c-62 -24 -110 -95 -110 -162 0 -62 -7 -71 -54 -71 l-41 0
0 -55 0 -55 41 0 c30 0 44 -5 48 -17 4 -9 6 -109 6 -222 l-2 -206 56 -3 56 -3
2 223 3 223 103 3 102 3 0 -226 0 -225 60 0 60 0 0 280 0 280 -162 2 -163 3 3
35 c4 47 27 70 71 70 l36 0 -1 62 -2 63 -48 2 c-27 1 -56 -1 -64 -4z"/>
<path d="M7328 8953 l-3 -78 -42 -3 -43 -3 0 -54 0 -54 43 -3 42 -3 5 -170 c4
-138 8 -176 23 -203 26 -47 72 -72 134 -72 80 0 83 3 83 75 l0 64 -27 -8 c-32
-9 -51 -5 -75 17 -16 13 -18 34 -18 159 l0 143 60 0 60 0 0 55 0 55 -60 0 -60
0 0 80 0 80 -60 0 -59 0 -3 -77z"/>
<path d="M9608 8953 l-3 -78 -42 -3 -43 -3 0 -54 0 -54 43 -3 42 -3 5 -175 c5
-163 7 -177 28 -208 31 -42 74 -64 128 -64 79 0 84 5 84 76 l0 64 -44 -5 c-68
-8 -76 10 -76 179 l0 138 60 0 60 0 0 55 0 55 -60 0 -60 0 0 80 0 80 -60 0
-59 0 -3 -77z"/>
<path d="M6434 8866 c-95 -44 -154 -149 -154 -275 0 -37 7 -88 16 -114 20 -58
86 -134 139 -158 55 -25 154 -25 204 1 34 17 121 103 121 119 0 3 -22 18 -48
33 -47 25 -49 25 -61 7 -19 -31 -73 -59 -114 -59 -65 0 -121 46 -133 110 l-6
30 186 0 186 0 0 51 c0 85 -26 155 -79 209 -71 74 -163 90 -257 46z m149 -100
c36 -15 67 -54 67 -86 0 -19 -6 -20 -125 -20 l-125 0 11 28 c29 77 99 109 172
78z"/>
<path d="M7074 8879 c-33 -9 -78 -46 -86 -69 -8 -25 -30 1 -26 31 l5 29 -59 0
-58 0 0 -280 0 -280 59 0 59 0 4 173 c2 142 6 178 21 205 27 50 72 74 130 69
l48 -4 -3 66 c-3 66 -3 66 -33 68 -16 1 -44 -2 -61 -8z"/>
<path d="M8666 8875 c-56 -20 -86 -44 -123 -99 -43 -64 -56 -116 -51 -206 7
-115 63 -207 154 -250 37 -18 58 -21 119 -18 63 3 80 8 117 34 43 30 91 90 85
107 -1 4 -23 20 -49 34 l-47 26 -26 -31 c-35 -42 -92 -58 -138 -39 -107 45
-130 212 -41 296 34 31 40 33 92 29 47 -4 60 -10 81 -35 l26 -30 53 24 c28 13
52 28 52 32 0 5 -10 23 -23 42 -57 84 -178 121 -281 84z"/>
<path d="M9146 8871 c-49 -20 -106 -66 -106 -85 0 -6 16 -24 35 -39 l36 -28
29 25 c80 67 192 35 207 -59 6 -38 6 -38 -23 -31 -113 25 -207 11 -251 -37
-78 -84 -68 -226 19 -288 64 -46 171 -36 222 20 26 29 36 26 36 -9 l0 -30 61
0 60 0 -3 218 c-3 210 -4 218 -28 262 -34 61 -91 92 -179 97 -49 2 -78 -2
-115 -16z m176 -317 c26 -14 29 -20 24 -46 -15 -75 -84 -120 -151 -98 -40 13
-55 35 -55 80 0 50 38 80 100 80 28 0 65 -7 82 -16z"/>
<path d="M10041 8864 c-201 -101 -200 -445 3 -543 61 -30 158 -29 217 2 39 21
109 95 109 116 0 4 -21 19 -46 33 l-46 25 -32 -35 c-27 -29 -41 -35 -82 -39
-73 -6 -131 36 -149 109 l-7 28 188 2 189 3 -2 55 c-5 120 -47 198 -132 242
-71 37 -137 38 -210 2z m167 -104 c31 -19 66 -76 56 -92 -3 -5 -59 -8 -125 -8
-131 0 -133 1 -99 58 36 59 110 77 168 42z"/>
<path d="M7670 8590 l0 -280 60 0 60 0 0 280 0 280 -60 0 -60 0 0 -280z"/>
<path d="M2260 7849 c25 -4 425 -8 889 -8 791 -1 845 -2 858 -18 14 -17 14
-17 9 0 -3 10 -6 23 -6 28 0 5 -358 9 -897 8 -494 -1 -878 -5 -853 -10z"/>
<path d="M11825 7555 l-59 -135 -3796 0 c-2087 0 -3936 0 -4108 0 l-312 0 2
-995 3 -995 315 -136 c351 -152 398 -173 1170 -509 300 -131 631 -275 735
-320 105 -45 236 -103 293 -128 56 -25 102 -43 102 -40 0 3 -40 53 -88 112
-262 316 -752 976 -752 1012 0 10 446 11 2114 5 1163 -4 2774 -4 3580 0 l1466
7 0 994 0 993 -62 30 c-35 16 -166 75 -293 130 -126 56 -235 103 -240 106 -6
2 -38 -56 -70 -131z m-6285 -786 c15 -36 -4 -80 -42 -93 -53 -19 -97 51 -67
105 24 46 88 40 109 -12z m-1247 26 c42 -17 97 -62 97 -78 0 -7 -14 -27 -30
-45 l-30 -32 -41 30 c-53 38 -105 40 -164 5 -57 -33 -80 -81 -80 -165 0 -115
51 -180 147 -187 53 -4 60 -1 130 49 15 11 23 7 52 -21 l35 -34 -22 -28 c-33
-46 -110 -79 -182 -79 -174 0 -294 163 -263 357 5 30 16 69 24 85 25 49 96
120 139 139 49 23 139 25 188 4z m1525 -42 c3 -51 2 -53 -22 -53 -28 0 -56
-24 -56 -48 0 -15 14 -17 117 -17 l118 0 3 -207 2 -208 -50 0 -49 0 -3 158 -3
157 -67 3 -68 3 0 -161 0 -160 -50 0 -50 0 0 160 0 160 -30 0 c-29 0 -30 1
-30 50 0 48 1 50 29 50 26 0 29 4 35 44 12 76 72 129 141 123 29 -2 30 -4 33
-54z m152 35 c40 -43 12 -118 -44 -118 -27 0 -66 42 -66 70 0 28 39 70 65 70
13 0 33 -10 45 -22z m2241 12 c15 -8 19 -21 19 -60 l0 -49 -33 6 c-38 6 -67
-15 -67 -48 0 -18 6 -20 43 -17 l42 3 3 -48 3 -47 -45 0 -46 0 0 -160 0 -160
-50 0 -50 0 0 160 0 160 -30 0 c-29 0 -30 1 -30 51 0 50 0 51 29 44 27 -6 28
-4 35 40 3 26 16 60 27 77 35 49 106 71 150 48z m534 -10 c23 -11 54 -33 69
-49 l28 -29 -35 -38 -35 -38 -36 32 c-30 26 -45 32 -82 32 -84 0 -144 -54
-164 -148 -27 -122 51 -232 162 -232 40 0 61 9 120 52 15 11 22 8 48 -17 16
-16 30 -34 30 -41 0 -20 -77 -80 -119 -92 -130 -39 -255 18 -318 146 -24 49
-28 69 -28 142 0 100 23 158 88 223 76 76 185 99 272 57z m2507 3 c24 -28 27
-47 13 -81 -19 -43 -58 -52 -91 -21 -28 26 -31 64 -8 97 19 27 65 29 86 5z
m-822 -283 l0 -290 -50 0 -50 0 0 283 c0 156 3 287 7 290 3 4 26 7 50 7 l43 0
0 -290z m-5150 186 l0 -55 43 -3 42 -3 3 -47 3 -48 -45 0 -46 0 0 -99 c0 -111
9 -128 60 -117 l30 6 0 -54 0 -54 -40 -7 c-54 -9 -109 18 -132 65 -14 27 -18
60 -18 148 l0 112 -31 0 c-30 0 -30 1 -27 48 3 43 5 47 31 50 26 3 27 6 27 58
l0 54 50 0 50 0 0 -54z m1648 -3 l3 -52 37 -3 c37 -3 37 -4 40 -50 l3 -48 -41
0 -41 0 3 -107 3 -108 40 0 40 0 0 -50 0 -50 -40 -8 c-30 -7 -51 -5 -77 6 -56
23 -70 61 -76 199 l-5 118 -29 0 c-28 0 -29 1 -26 48 3 44 5 47 33 50 29 3 30
5 27 43 -6 62 1 71 55 67 l48 -3 3 -52z m4092 -3 l0 -60 45 0 45 0 0 -45 0
-45 -45 0 -45 0 0 -99 c0 -112 8 -127 60 -116 l31 7 -3 -53 c-3 -51 -4 -53
-36 -61 -42 -11 -91 4 -123 38 -22 24 -24 34 -27 155 l-4 129 -29 0 c-28 0
-29 2 -29 44 0 41 2 45 28 48 26 3 27 6 30 61 l3 57 49 0 50 0 0 -60z m-6315
-69 c42 -24 72 -72 85 -137 18 -85 20 -84 -130 -84 -146 0 -156 -6 -101 -61
39 -38 91 -40 127 -4 30 30 30 30 72 5 33 -20 33 -20 16 -49 -28 -48 -90 -81
-151 -81 -115 0 -193 88 -193 217 1 164 148 268 275 194z m359 23 c12 -5 16
-20 16 -61 0 -53 -1 -55 -24 -49 -36 9 -85 -13 -101 -45 -11 -20 -15 -62 -15
-149 l0 -120 -50 0 -50 0 2 208 3 207 40 0 c36 0 40 -3 43 -28 l3 -28 20 25
c11 14 35 30 52 35 42 12 43 12 61 5z m1247 -30 c32 -22 59 -60 59 -83 0 -4
-18 -16 -40 -26 l-40 -18 -24 26 c-67 72 -170 -12 -146 -118 10 -45 34 -72 70
-80 30 -7 90 17 90 35 0 16 33 11 68 -10 l34 -21 -25 -32 c-59 -78 -152 -100
-237 -57 -158 81 -128 369 43 411 47 11 107 0 148 -27z m354 6 c53 -33 65 -78
65 -250 l0 -150 -50 0 c-39 0 -50 4 -50 16 0 13 -5 12 -26 -5 -18 -14 -41 -21
-71 -21 -86 0 -133 48 -133 135 0 60 24 100 75 125 46 22 74 25 123 11 29 -9
32 -8 32 11 0 56 -82 78 -134 37 l-26 -20 -30 21 c-39 28 -38 43 5 76 63 48
156 54 220 14z m657 -7 c44 -30 78 -102 78 -167 l0 -46 -134 0 -135 0 11 -30
c21 -63 93 -80 146 -35 30 25 31 25 66 8 20 -9 36 -21 36 -26 0 -21 -54 -80
-86 -93 -76 -32 -180 -6 -223 54 -32 46 -42 81 -42 150 0 174 152 274 283 185z
m528 12 c70 -37 110 -108 110 -200 0 -129 -79 -215 -196 -215 -167 0 -254 213
-147 358 56 76 152 99 233 57z m1265 14 c91 -25 145 -107 145 -216 -1 -170
-158 -269 -292 -184 -146 93 -110 362 55 401 45 11 48 11 92 -1z m430 -3 c19
-8 40 -24 46 -35 13 -19 14 -19 45 8 65 58 156 44 199 -29 17 -30 20 -56 23
-197 l4 -163 -51 0 -51 0 0 133 c0 86 -5 141 -13 157 -17 34 -66 39 -93 9 -16
-18 -20 -41 -24 -158 l-5 -136 -49 0 -48 0 1 110 c1 117 -9 183 -31 196 -23
15 -54 10 -74 -12 -16 -18 -20 -42 -24 -158 l-5 -136 -47 -3 -48 -3 0 205 0
206 45 0 c40 0 45 -3 45 -22 l0 -21 23 21 c22 21 61 40 85 41 7 1 28 -5 47
-13z m658 -12 c57 -30 102 -133 95 -218 -13 -151 -146 -243 -249 -173 l-34 23
3 -99 c3 -63 0 -102 -7 -106 -5 -4 -28 -5 -51 -3 l-40 4 0 289 0 289 35 0 c19
0 38 1 43 3 4 1 8 -9 10 -21 l4 -24 23 22 c43 40 105 46 168 14z m549 0 c55
-28 97 -113 98 -196 l0 -28 -135 0 c-151 0 -161 -6 -106 -61 38 -38 87 -39
130 -3 31 26 47 24 88 -8 19 -15 -11 -59 -60 -92 -75 -48 -176 -31 -234 38
-73 89 -71 222 6 307 58 65 138 81 213 43z m838 1 c117 -60 146 -242 57 -351
-37 -44 -81 -64 -142 -64 -126 0 -216 129 -186 265 13 58 57 127 93 146 55 29
125 31 178 4z m426 -1 c46 -31 58 -77 62 -246 l4 -158 -50 0 -50 0 -4 139 c-3
120 -6 142 -22 160 -35 38 -88 22 -112 -34 -9 -23 -14 -73 -14 -150 l0 -115
-50 0 -50 0 0 204 c0 222 -2 216 60 206 25 -4 35 -10 34 -23 -1 -9 2 -17 7
-17 5 0 9 4 9 9 0 5 19 19 43 30 46 24 91 22 133 -5z m-6488 -196 l2 -208 -50
0 -50 0 0 203 c0 112 3 207 7 211 4 4 25 6 48 4 l40 -3 3 -207z m5732 -3 l0
-205 -50 0 -50 0 0 205 0 205 50 0 50 0 0 -205z"/>
<path d="M4562 6527 c-38 -40 -29 -47 58 -47 87 0 95 6 55 45 -32 33 -83 34
-113 2z"/>
<path d="M6545 6402 c-31 -6 -45 -22 -45 -51 0 -36 17 -51 56 -51 37 0 77 41
72 74 -3 21 -45 35 -83 28z"/>
<path d="M7165 6525 c-40 -39 -32 -45 55 -45 88 0 99 9 57 48 -32 30 -81 29
-112 -3z"/>
<path d="M7708 6511 c-30 -26 -33 -35 -33 -84 0 -44 5 -60 23 -80 66 -70 162
-24 162 78 0 101 -83 148 -152 86z"/>
<path d="M9022 6524 c-52 -36 -66 -107 -32 -162 36 -58 110 -66 150 -15 14 19
20 41 20 80 0 47 -4 59 -29 84 -33 33 -74 38 -109 13z"/>
<path d="M10057 6520 c-36 -29 -52 -83 -38 -130 13 -45 37 -68 79 -76 27 -6
37 -1 67 29 29 29 35 42 35 76 0 100 -76 153 -143 101z"/>
<path d="M10612 6527 c-38 -40 -29 -47 58 -47 89 0 102 12 54 49 -36 28 -85
27 -112 -2z"/>
<path d="M11447 6514 c-50 -49 -47 -135 5 -179 66 -56 148 -6 148 91 0 98 -91
150 -153 88z"/>
</g>
</svg>
